<?xml version="1.0" encoding="UTF-8" standalone="no"?>
<svg
   version="1.1"
   width="512px"
   height="512px"
   style="shape-rendering:geometricPrecision; text-rendering:geometricPrecision; image-rendering:optimizeQuality; fill-rule:evenodd; clip-rule:evenodd"
   id="svg43"
   sodipodi:docname="mime.svg"
   inkscape:version="1.3 (0e150ed6c4, 2023-07-21)"
   xmlns:inkscape="http://www.inkscape.org/namespaces/inkscape"
   xmlns:sodipodi="http://sodipodi.sourceforge.net/DTD/sodipodi-0.dtd"
   xmlns="http://www.w3.org/2000/svg"
   xmlns:svg="http://www.w3.org/2000/svg">
  <defs
     id="defs43" />
  <sodipodi:namedview
     id="namedview43"
     pagecolor="#ffffff"
     bordercolor="#000000"
     borderopacity="0.25"
     inkscape:showpageshadow="2"
     inkscape:pageopacity="0.0"
     inkscape:pagecheckerboard="0"
     inkscape:deskcolor="#d1d1d1"
     inkscape:zoom="1.6757812"
     inkscape:cx="318.95571"
     inkscape:cy="154.55478"
     inkscape:window-width="1920"
     inkscape:window-height="1056"
     inkscape:window-x="0"
     inkscape:window-y="0"
     inkscape:window-maximized="1"
     inkscape:current-layer="svg43" />
  <g
     id="g1"
     style="fill-rule:nonzero"
     inkscape:label="g1">
    <path
       style="opacity:0.066;fill-rule:nonzero"
       fill="#0c0b0c"
       d="M 74.025299,3.9219565 C 156.18699,3.7549699 239.00846,3.50309 320.5,4 c 15.8631,0.8761684 26.84235,2.8712646 44.57804,19.027446 L 402,59.5 c 7.167,7.1667 14.333,14.3333 21.5,21.5 L 434,91.5 c 21.8982,20.63399 33.21926,31.28923 39,63 0.667,106 0.667,212 0,318 -1.01163,19.96276 -11.19212,32.20886 -30.63639,32.15365 -124.667,0.667 -248.55088,0.56681 -373.217878,-0.10019 -19.259903,-3.93484 -30.412643,-17.59279 -29.879863,-36.47542 -0.6667,-142 -0.6667,-283.78902 0,-425.789018 C 40.297447,11.195252 55.85142,5.7576478 74.025299,3.9219565 Z"
       id="path1"
       inkscape:label="path1"
       sodipodi:nodetypes="ccccccccccccc" />
  </g>
  <g
     id="g6"
     inkscape:label="g6"
     style="display:inline;fill-rule:nonzero">
    <path
       style="opacity:0.999;fill-rule:nonzero"
       fill="#fefdfd"
       d="m 353.50816,30.693473 c 28.028,28.3615 58.361,56.3615 87,83.999997 6.97935,8.60306 14.08402,16.83046 16.49184,27.80653 1.156,55.297 1.656,110.631 1.5,166 0.161,54.724 -0.60007,109.27811 -1.76107,163.88811 C 454.73981,479.94329 447.78936,484.33922 439.5,486 316.833,486.667 194.167,486.667 71.5,486 61.146,484.57174 54.9794,476.60073 53,465.5 52.3333,320.833 52.3333,176.167 53,31.5 53.712871,23.014443 61.020255,14.462183 70.588578,13.306527 151.09058,13.639127 230.2301,13.604195 309.5,13.5 c 20.31633,-1.183529 29.00831,2.078176 44.00816,17.193473 z"
       id="path6"
       sodipodi:nodetypes="cccccccccccc" />
  </g>
  <g
     id="g14"
     inkscape:label="g14">
    <path
       style="opacity:1"
       fill="#fd65aa"
       d="M 129.5,47.5 C 144.167,47.5 158.833,47.5 173.5,47.5C 161.588,61.0812 148.921,74.0812 135.5,86.5C 134.754,87.7362 134.421,89.0695 134.5,90.5C 148.148,91.114 161.814,91.7807 175.5,92.5C 161.14,106.194 147.14,120.194 133.5,134.5C 134.729,135.281 136.062,135.781 137.5,136C 151.236,136.945 164.903,136.612 178.5,135C 191.279,122.221 204.113,109.387 217,96.5C 217.483,95.552 217.649,94.552 217.5,93.5C 219.103,93.6882 220.437,93.1882 221.5,92C 236.496,91.5001 251.496,91.3334 266.5,91.5C 266.5,77.1667 266.5,62.8333 266.5,48.5C 273.226,48.2049 279.892,48.5383 286.5,49.5C 287.298,49.0431 287.631,48.3764 287.5,47.5C 287.833,47.5 288.167,47.5 288.5,47.5C 288.5,85.5 288.5,123.5 288.5,161.5C 281.949,166.706 275.616,172.373 269.5,178.5C 268.675,179.386 267.675,179.719 266.5,179.5C 266.5,165.167 266.5,150.833 266.5,136.5C 251.5,136.5 236.5,136.5 221.5,136.5C 221.817,151.911 221.483,167.245 220.5,182.5C 219.662,182.842 219.328,183.508 219.5,184.5C 218.761,184.369 218.094,184.536 217.5,185C 204.251,198.417 190.917,211.584 177.5,224.5C 176.733,225.172 176.066,226.005 175.5,227C 160.504,227.5 145.504,227.667 130.5,227.5C 131.599,242.141 131.766,256.808 131,271.5C 118.93,286.404 105.43,299.737 90.5,311.5C 89.8425,313.437 89.5092,315.27 89.5,317C 103.5,317.333 117.5,317.667 131.5,318C 130.884,319.4 130.551,320.9 130.5,322.5C 131.091,335.499 131.757,348.499 132.5,361.5C 141.458,352.041 150.625,342.708 160,333.5C 161.802,328.292 162.969,322.959 163.5,317.5C 153.161,317.666 142.828,317.5 132.5,317C 142.743,306.925 152.743,296.759 162.5,286.5C 163.331,279.524 163.831,272.524 164,265.5C 164.278,264.584 164.778,263.918 165.5,263.5C 166.161,303.514 165.494,343.181 163.5,382.5C 163.5,375.833 163.5,369.167 163.5,362.5C 152.833,362.5 142.167,362.5 131.5,362.5C 131.5,367.5 131.5,372.5 131.5,377.5C 133.415,377.216 135.081,377.549 136.5,378.5C 127.658,379.953 119.325,383.12 111.5,388C 106.283,392.266 103.617,397.766 103.5,404.5C 103.657,405.873 103.49,407.207 103,408.5C 102.439,407.978 101.772,407.645 101,407.5C 96.8175,408.134 92.6509,408.801 88.5,409.5C 87.5,302.835 87.1667,196.169 87.5,89.5C 101.914,75.7522 115.914,61.7522 129.5,47.5 Z"
       id="path14" />
  </g>
  <g
     id="g15">
    <path
       style="opacity:1"
       fill="#b44475"
       d="M 129.5,47.5 C 115.914,61.7522 101.914,75.7522 87.5,89.5C 87.5,75.5 87.5,61.5 87.5,47.5C 101.5,47.5 115.5,47.5 129.5,47.5 Z"
       id="path15" />
  </g>
  <g
     id="g16">
    <path
       style="opacity:1"
       fill="#ed5b9d"
       d="M 173.5,47.5 C 211.5,47.5 249.5,47.5 287.5,47.5C 287.631,48.3764 287.298,49.0431 286.5,49.5C 279.892,48.5383 273.226,48.2049 266.5,48.5C 266.5,62.8333 266.5,77.1667 266.5,91.5C 251.496,91.3334 236.496,91.5001 221.5,92C 220.437,93.1882 219.103,93.6882 217.5,93.5C 217.649,94.552 217.483,95.552 217,96.5C 204.113,109.387 191.279,122.221 178.5,135C 164.903,136.612 151.236,136.945 137.5,136C 136.062,135.781 134.729,135.281 133.5,134.5C 147.14,120.194 161.14,106.194 175.5,92.5C 161.814,91.7807 148.148,91.114 134.5,90.5C 134.421,89.0695 134.754,87.7362 135.5,86.5C 148.921,74.0812 161.588,61.0812 173.5,47.5 Z"
       id="path16" />
  </g>
  <g
     id="g17">
    <path
       style="opacity:1"
       fill="#fd65aa"
       d="M 218.5,48.5 C 232.504,48.3334 246.504,48.5001 260.5,49C 261.167,49.6667 261.833,50.3333 262.5,51C 248.878,63.6205 235.545,76.6205 222.5,90C 214.573,91.1186 206.573,91.6186 198.5,91.5C 191.5,91.1667 184.5,90.8333 177.5,90.5C 191.215,76.4525 204.882,62.4525 218.5,48.5 Z"
       id="path17" />
  </g>
  <g
     id="g18">
    <path
       style="opacity:1"
       fill="#d0739b"
       d="M 289.5,47.5 C 289.167,47.5 288.833,47.5 288.5,47.5C 288.167,47.5 287.833,47.5 287.5,47.5C 249.5,47.5 211.5,47.5 173.5,47.5C 158.833,47.5 144.167,47.5 129.5,47.5C 115.5,47.5 101.5,47.5 87.5,47.5C 87.5,61.5 87.5,75.5 87.5,89.5C 87.1667,89.5 86.8333,89.5 86.5,89.5C 86.5,75.1667 86.5,60.8333 86.5,46.5C 154.335,46.1675 222.002,46.5008 289.5,47.5 Z"
       id="path18" />
  </g>
  <g
     id="g19">
    <path
       style="opacity:1"
       fill="#fe67aa"
       d="M 323.5,49.5 C 327.14,50.15 330.473,51.65 333.5,54C 362,82.5 390.5,111 419,139.5C 420.626,142.058 421.626,144.725 422,147.5C 389.572,148.662 357.072,148.829 324.5,148C 323.504,115.24 323.171,82.4066 323.5,49.5 Z"
       id="path19" />
  </g>
  <g
     id="g20">
    <path
       style="opacity:1"
       fill="#ed5c9d"
       d="M 266.5,91.5 C 273.5,91.5 280.5,91.5 287.5,91.5C 287.831,100.192 287.498,108.859 286.5,117.5C 280.805,123.031 274.971,128.364 269,133.5C 268.055,133.095 267.388,132.428 267,131.5C 266.5,118.171 266.333,104.837 266.5,91.5 Z"
       id="path20" />
  </g>
  <g
     id="g21">
    <path
       style="opacity:1"
       fill="#da5490"
       d="M 176.5,92.5 C 189.199,92.2392 201.866,92.7392 214.5,94C 209.62,100.93 203.953,107.597 197.5,114C 195.5,115 193.5,116 191.5,117C 188.081,121.05 184.747,125.217 181.5,129.5C 179.997,130.052 178.331,130.052 176.5,129.5C 176.282,117.111 176.282,104.778 176.5,92.5 Z"
       id="path21" />
  </g>
  <g
     id="g22">
    <path
       style="opacity:1"
       fill="#ec5c9c"
       d="M 288.5,47.5 C 288.833,47.5 289.167,47.5 289.5,47.5C 289.333,85.5015 289.5,123.501 290,161.5C 292.357,170.26 297.523,176.594 305.5,180.5C 291.646,181.919 277.646,183.085 263.5,184C 250.242,199.757 235.908,214.257 220.5,227.5C 221.823,212.402 221.823,197.402 220.5,182.5C 221.483,167.245 221.817,151.911 221.5,136.5C 236.5,136.5 251.5,136.5 266.5,136.5C 266.5,150.833 266.5,165.167 266.5,179.5C 267.675,179.719 268.675,179.386 269.5,178.5C 275.616,172.373 281.949,166.706 288.5,161.5C 288.5,123.5 288.5,85.5 288.5,47.5 Z"
       id="path22" />
  </g>
  <g
     id="g23">
    <path
       style="opacity:1"
       fill="#fd65aa"
       d="M 305.5,180.5 C 345.03,181.158 384.53,181.825 424,182.5C 424.5,227.499 424.667,272.499 424.5,317.5C 417.167,317.5 409.833,317.5 402.5,317.5C 402.333,331.837 402.5,346.171 403,360.5C 408.5,356.333 413.333,351.5 417.5,346C 419.717,344.277 422.05,342.777 424.5,341.5C 424.5,378.5 424.5,415.5 424.5,452.5C 312.167,452.5 199.833,452.5 87.5,452.5C 95.7627,443.727 104.763,434.56 114.5,425C 113.185,423.605 113.519,422.605 115.5,422C 113.158,420.608 113.158,419.775 115.5,419.5C 120.565,421.015 125.565,422.682 130.5,424.5C 130.5,433.5 130.5,442.5 130.5,451.5C 139.407,444.108 148.074,435.941 156.5,427C 156.167,426.667 155.833,426.333 155.5,426C 157.5,425.333 159.5,424.667 161.5,424C 160.552,423.517 159.552,423.351 158.5,423.5C 164.621,421.773 170.288,418.939 175.5,415C 178.409,412.015 180.409,408.515 181.5,404.5C 182.29,403.391 182.79,402.058 183,400.5C 191.419,391.588 200.253,383.254 209.5,375.5C 210.971,376.381 211.804,377.714 212,379.5C 213.4,380.748 214.9,381.748 216.5,382.5C 231.403,393.875 248.07,397.208 266.5,392.5C 266.085,396.804 266.752,401.137 268.5,405.5C 273.592,401.423 278.425,397.089 283,392.5C 287.527,385.306 293.361,379.473 300.5,375C 304.419,370.726 308.419,367.059 312.5,364C 311.643,364.689 310.977,365.522 310.5,366.5C 311.325,394.124 311.825,421.791 312,449.5C 313.727,450.374 315.56,450.207 317.5,449C 327.637,437.863 338.137,427.029 349,416.5C 350.115,413.73 351.615,411.23 353.5,409C 340.171,408.5 326.837,408.333 313.5,408.5C 313.729,406.567 314.562,404.9 316,403.5C 329.369,390.299 342.535,376.965 355.5,363.5C 356.167,363.5 356.5,363.167 356.5,362.5C 370.019,349.326 384.019,335.66 398.5,321.5C 399.429,320.311 399.762,318.978 399.5,317.5C 384.99,317.171 370.657,317.504 356.5,318.5C 341.833,332.5 327.5,346.833 313.5,361.5C 311.68,347.869 310.847,333.869 311,319.5C 305.045,324.284 299.211,329.284 293.5,334.5C 292.583,335.127 291.583,335.461 290.5,335.5C 290.033,320.403 290.533,305.403 292,290.5C 293.419,289.54 294.919,288.707 296.5,288C 301.04,282.962 305.707,278.128 310.5,273.5C 311.333,287.488 311.833,301.488 312,315.5C 312.667,314.167 313.333,314.167 314,315.5C 326.333,303.167 338.667,290.833 351,278.5C 351.495,276.527 351.662,274.527 351.5,272.5C 331.497,272.667 311.497,272.5 291.5,272C 290.842,259.069 290.175,246.235 289.5,233.5C 289.5,232.833 289.5,232.167 289.5,231.5C 290.028,230.279 290.695,229.113 291.5,228C 298.158,227.5 304.825,227.334 311.5,227.5C 311.667,214.829 311.5,202.162 311,189.5C 310.333,188.833 309.667,188.167 309,187.5C 304.236,190.59 299.736,194.09 295.5,198C 290.7,203.802 285.533,209.302 280,214.5C 278.858,216.618 278.358,218.618 278.5,220.5C 279.167,221.167 279.833,221.833 280.5,222.5C 278.709,223.17 277.042,223.837 275.5,224.5C 252.366,232.118 229.032,239.118 205.5,245.5C 205.414,244.504 205.748,243.671 206.5,243C 207.872,242.598 209.205,242.098 210.5,241.5C 211.221,237.658 212.887,234.324 215.5,231.5C 215.182,230.353 214.516,229.519 213.5,229C 216.036,228.814 218.369,228.314 220.5,227.5C 235.908,214.257 250.242,199.757 263.5,184C 277.646,183.085 291.646,181.919 305.5,180.5 Z"
       id="path23" />
  </g>
  <g
     id="g24">
    <path
       style="opacity:1"
       fill="#ee5c9e"
       d="M 130.5,227.5 C 116.829,227.667 103.163,227.5 89.5,227C 89.6932,225.355 89.8598,223.521 90,221.5C 103.982,209.018 117.482,196.018 130.5,182.5C 130.539,197.321 130.539,212.321 130.5,227.5 Z"
       id="path24" />
  </g>
  <g
     id="g25">
    <path
       style="opacity:1"
       fill="#ed5d9e"
       d="M 289.5,231.5 C 286.241,226.537 281.574,224.203 275.5,224.5C 277.042,223.837 278.709,223.17 280.5,222.5C 279.833,221.833 279.167,221.167 278.5,220.5C 278.358,218.618 278.858,216.618 280,214.5C 285.533,209.302 290.7,203.802 295.5,198C 299.736,194.09 304.236,190.59 309,187.5C 309.667,188.167 310.333,188.833 311,189.5C 311.5,202.162 311.667,214.829 311.5,227.5C 304.825,227.334 298.158,227.5 291.5,228C 290.695,229.113 290.028,230.279 289.5,231.5 Z"
       id="path25" />
  </g>
  <g
     id="g26">
    <path
       style="opacity:1"
       fill="#fefefd"
       d="M 275.5,224.5 C 281.574,224.203 286.241,226.537 289.5,231.5C 289.5,232.167 289.5,232.833 289.5,233.5C 289.5,280.5 289.5,327.5 289.5,374.5C 288.541,378.298 286.541,381.465 283.5,384C 278.364,387.901 272.698,390.734 266.5,392.5C 248.07,397.208 231.403,393.875 216.5,382.5C 209.272,372.21 210.938,363.377 221.5,356C 227.026,352.999 232.693,350.499 238.5,348.5C 250.022,347.825 261.355,348.825 272.5,351.5C 272.56,352.043 272.893,352.376 273.5,352.5C 274.828,331.004 274.828,309.67 273.5,288.5C 242.952,297.905 212.285,306.905 181.5,315.5C 181.5,327.833 181.5,340.167 181.5,352.5C 181.5,369.833 181.5,387.167 181.5,404.5C 180.409,408.515 178.409,412.015 175.5,415C 170.288,418.939 164.621,421.773 158.5,423.5C 149.239,425.633 139.906,425.966 130.5,424.5C 125.565,422.682 120.565,421.015 115.5,419.5C 109.982,415.656 105.982,410.656 103.5,404.5C 103.617,397.766 106.283,392.266 111.5,388C 119.325,383.12 127.658,379.953 136.5,378.5C 145.786,378.025 154.786,379.358 163.5,382.5C 164.209,383.404 165.209,383.737 166.5,383.5C 166.5,343.5 166.5,303.5 166.5,263.5C 167.588,259.91 169.921,257.41 173.5,256C 184.409,253.058 195.076,249.558 205.5,245.5C 229.032,239.118 252.366,232.118 275.5,224.5 Z"
       id="path26" />
  </g>
  <g
     id="g27">
    <path
       style="opacity:1"
       fill="#c2437f"
       d="M 220.5,182.5 C 221.823,197.402 221.823,212.402 220.5,227.5C 206.167,227.5 191.833,227.5 177.5,227.5C 177.5,226.5 177.5,225.5 177.5,224.5C 190.917,211.584 204.251,198.417 217.5,185C 218.094,184.536 218.761,184.369 219.5,184.5C 219.328,183.508 219.662,182.842 220.5,182.5 Z"
       id="path27" />
  </g>
  <g
     id="g28">
    <path
       style="opacity:1"
       fill="#b34576"
       d="M 219.5,184.5 C 220.659,194.992 220.825,205.659 220,216.5C 217.101,217.874 216.934,219.374 219.5,221C 218.5,222 217.5,223 216.5,224C 206.204,225.395 195.87,225.562 185.5,224.5C 186.656,220.506 188.489,216.84 191,213.5C 200.702,203.965 210.202,194.298 219.5,184.5 Z"
       id="path28" />
  </g>
  <g
     id="g29">
    <path
       style="opacity:1"
       fill="#ed5c9d"
       d="M 177.5,224.5 C 177.5,225.5 177.5,226.5 177.5,227.5C 191.833,227.5 206.167,227.5 220.5,227.5C 218.369,228.314 216.036,228.814 213.5,229C 214.516,229.519 215.182,230.353 215.5,231.5C 212.887,234.324 211.221,237.658 210.5,241.5C 209.205,242.098 207.872,242.598 206.5,243C 205.748,243.671 205.414,244.504 205.5,245.5C 195.076,249.558 184.409,253.058 173.5,256C 169.921,257.41 167.588,259.91 166.5,263.5C 166.167,263.5 165.833,263.5 165.5,263.5C 164.778,263.918 164.278,264.584 164,265.5C 163.831,272.524 163.331,279.524 162.5,286.5C 152.743,296.759 142.743,306.925 132.5,317C 142.828,317.5 153.161,317.666 163.5,317.5C 162.969,322.959 161.802,328.292 160,333.5C 150.625,342.708 141.458,352.041 132.5,361.5C 131.757,348.499 131.091,335.499 130.5,322.5C 130.551,320.9 130.884,319.4 131.5,318C 117.5,317.667 103.5,317.333 89.5,317C 89.5092,315.27 89.8425,313.437 90.5,311.5C 105.43,299.737 118.93,286.404 131,271.5C 131.766,256.808 131.599,242.141 130.5,227.5C 145.504,227.667 160.504,227.5 175.5,227C 176.066,226.005 176.733,225.172 177.5,224.5 Z"
       id="path29" />
  </g>
  <g
     id="g30">
    <path
       style="opacity:1"
       fill="#ee5e9e"
       d="M 289.5,233.5 C 290.175,246.235 290.842,259.069 291.5,272C 311.497,272.5 331.497,272.667 351.5,272.5C 351.662,274.527 351.495,276.527 351,278.5C 338.667,290.833 326.333,303.167 314,315.5C 313.333,314.167 312.667,314.167 312,315.5C 311.833,301.488 311.333,287.488 310.5,273.5C 305.707,278.128 301.04,282.962 296.5,288C 294.919,288.707 293.419,289.54 292,290.5C 290.533,305.403 290.033,320.403 290.5,335.5C 290.829,348.677 290.495,361.677 289.5,374.5C 289.5,327.5 289.5,280.5 289.5,233.5 Z"
       id="path30" />
  </g>
  <g
     id="g31">
    <path
       style="opacity:1"
       fill="#ed5c9d"
       d="M 357.5,272.5 C 370.85,272.167 384.183,272.501 397.5,273.5C 396.686,276.464 395.186,279.464 393,282.5C 391.039,285.135 388.539,286.969 385.5,288C 377.713,298.288 368.713,307.454 358.5,315.5C 357.808,314.975 357.308,314.308 357,313.5C 356.202,299.788 356.369,286.122 357.5,272.5 Z"
       id="path31" />
  </g>
  <g
     id="g32">
    <path
       style="opacity:1"
       fill="#fd65a9"
       d="M 273.5,288.5 C 273.831,309.673 273.497,330.673 272.5,351.5C 261.355,348.825 250.022,347.825 238.5,348.5C 238.389,347.883 238.056,347.383 237.5,347C 245.656,337.843 254.156,329.01 263,320.5C 263.483,319.552 263.649,318.552 263.5,317.5C 248.761,317.05 234.095,317.55 219.5,319C 207.979,331.521 195.812,343.355 183,354.5C 182.722,353.584 182.222,352.918 181.5,352.5C 181.5,340.167 181.5,327.833 181.5,315.5C 212.285,306.905 242.952,297.905 273.5,288.5 Z"
       id="path32" />
  </g>
  <g
     id="g33">
    <path
       style="opacity:1"
       fill="#fdc2d3"
       d="M 165.5,263.5 C 165.833,263.5 166.167,263.5 166.5,263.5C 166.5,303.5 166.5,343.5 166.5,383.5C 165.209,383.737 164.209,383.404 163.5,382.5C 165.494,343.181 166.161,303.514 165.5,263.5 Z"
       id="path33" />
  </g>
  <g
     id="g34">
    <path
       style="opacity:1"
       fill="#ed5d9d"
       d="M 238.5,348.5 C 232.693,350.499 227.026,352.999 221.5,356C 210.938,363.377 209.272,372.21 216.5,382.5C 214.9,381.748 213.4,380.748 212,379.5C 211.804,377.714 210.971,376.381 209.5,375.5C 200.253,383.254 191.419,391.588 183,400.5C 182.79,402.058 182.29,403.391 181.5,404.5C 181.5,387.167 181.5,369.833 181.5,352.5C 182.222,352.918 182.722,353.584 183,354.5C 195.812,343.355 207.979,331.521 219.5,319C 234.095,317.55 248.761,317.05 263.5,317.5C 263.649,318.552 263.483,319.552 263,320.5C 254.156,329.01 245.656,337.843 237.5,347C 238.056,347.383 238.389,347.883 238.5,348.5 Z"
       id="path34" />
  </g>
  <g
     id="g35">
    <path
       style="opacity:1"
       fill="#ec5c9d"
       d="M 356.5,318.5 C 370.657,317.504 384.99,317.171 399.5,317.5C 399.762,318.978 399.429,320.311 398.5,321.5C 384.019,335.66 370.019,349.326 356.5,362.5C 356.544,347.586 356.544,332.92 356.5,318.5 Z"
       id="path35" />
  </g>
  <g
     id="g36">
    <path
       style="opacity:1"
       fill="#b44476"
       d="M 424.5,317.5 C 424.5,325.5 424.5,333.5 424.5,341.5C 422.05,342.777 419.717,344.277 417.5,346C 413.333,351.5 408.5,356.333 403,360.5C 402.5,346.171 402.333,331.837 402.5,317.5C 409.833,317.5 417.167,317.5 424.5,317.5 Z"
       id="path36" />
  </g>
  <g
     id="g37">
    <path
       style="opacity:1"
       fill="#fcb4ca"
       d="M 273.5,288.5 C 274.828,309.67 274.828,331.004 273.5,352.5C 272.893,352.376 272.56,352.043 272.5,351.5C 273.497,330.673 273.831,309.673 273.5,288.5 Z"
       id="path37" />
  </g>
  <g
     id="g38"
     inkscape:label="g38">
    <path
       style="opacity:1"
       fill="#b44576"
       d="M 356.5,318.5 C 356.544,332.92 356.544,347.586 356.5,362.5C 356.5,363.167 356.167,363.5 355.5,363.5C 341.445,362.907 327.445,362.24 313.5,361.5C 327.5,346.833 341.833,332.5 356.5,318.5 Z"
       id="path38" />
  </g>
  <g
     id="g39">
    <path
       style="opacity:1"
       fill="#ed5c9e"
       d="M 163.5,382.5 C 154.786,379.358 145.786,378.025 136.5,378.5C 135.081,377.549 133.415,377.216 131.5,377.5C 131.5,372.5 131.5,367.5 131.5,362.5C 142.167,362.5 152.833,362.5 163.5,362.5C 163.5,369.167 163.5,375.833 163.5,382.5 Z"
       id="path39" />
  </g>
  <g
     id="g40"
     inkscape:label="g40">
    <path
       style="opacity:1"
       fill="#ed5c9d"
       d="M 400.5,363.5 C 401.496,377.99 401.829,392.657 401.5,407.5C 392.21,407.809 383.044,407.142 374,405.5C 371.531,406.147 368.698,406.48 365.5,406.5C 365.055,403.635 365.722,401.135 367.5,399C 367.167,398.667 366.833,398.333 366.5,398C 378.09,386.578 389.423,375.078 400.5,363.5 Z"
       id="path40" />
  </g>
  <g
     id="g41"
     inkscape:label="g41">
    <path
       style="opacity:1"
       fill="#ee5c9e"
       d="M 313.5,361.5 C 327.445,362.24 341.445,362.907 355.5,363.5C 342.535,376.965 329.369,390.299 316,403.5C 314.562,404.9 313.729,406.567 313.5,408.5C 326.837,408.333 340.171,408.5 353.5,409C 351.615,411.23 350.115,413.73 349,416.5C 338.137,427.029 327.637,437.863 317.5,449C 315.56,450.207 313.727,450.374 312,449.5C 311.825,421.791 311.325,394.124 310.5,366.5C 310.977,365.522 311.643,364.689 312.5,364C 308.419,367.059 304.419,370.726 300.5,375C 293.361,379.473 287.527,385.306 283,392.5C 278.425,397.089 273.592,401.423 268.5,405.5C 266.752,401.137 266.085,396.804 266.5,392.5C 272.698,390.734 278.364,387.901 283.5,384C 286.541,381.465 288.541,378.298 289.5,374.5C 290.495,361.677 290.829,348.677 290.5,335.5C 291.583,335.461 292.583,335.127 293.5,334.5C 299.211,329.284 305.045,324.284 311,319.5C 310.847,333.869 311.68,347.869 313.5,361.5 Z"
       id="path41" />
  </g>
  <g
     id="g42"
     inkscape:label="g42">
    <path
       style="opacity:1"
       fill="#f064a1"
       d="M 86.5,89.5 C 86.8333,89.5 87.1667,89.5 87.5,89.5C 87.1667,196.169 87.5,302.835 88.5,409.5C 92.6509,408.801 96.8175,408.134 101,407.5C 101.772,407.645 102.439,407.978 103,408.5C 103.49,407.207 103.657,405.873 103.5,404.5C 105.982,410.656 109.982,415.656 115.5,419.5C 113.158,419.775 113.158,420.608 115.5,422C 113.519,422.605 113.185,423.605 114.5,425C 104.763,434.56 95.7627,443.727 87.5,452.5C 86.5005,331.668 86.1671,210.668 86.5,89.5 Z"
       id="path42" />
  </g>
  <g
     id="g43"
     inkscape:label="g43">
    <path
       style="opacity:1"
       fill="#de5290"
       d="M 158.5,423.5 C 159.552,423.351 160.552,423.517 161.5,424C 159.5,424.667 157.5,425.333 155.5,426C 155.833,426.333 156.167,426.667 156.5,427C 148.074,435.941 139.407,444.108 130.5,451.5C 130.5,442.5 130.5,433.5 130.5,424.5C 139.906,425.966 149.239,425.633 158.5,423.5 Z"
       id="path43" />
  </g>
</svg>
