<svg width="430" height="501" viewBox="0 0 430 501" fill="none" xmlns="http://www.w3.org/2000/svg">
<path fill-rule="evenodd" clip-rule="evenodd" d="M314.917 33.9168C302.164 21.1643 284.868 14 266.833 14H32C22.0589 14 14 22.0589 14 32V469C14 478.941 22.0589 487 32 487H398C407.941 487 416 478.941 416 469V163.167C416 145.132 408.836 127.836 396.083 115.083L314.917 33.9168Z" fill="white"/>
<path d="M266.833 7H32C18.1929 7 7 18.1929 7 32V469C7 482.807 18.1929 494 32 494H398C411.807 494 423 482.807 423 469V163.167C423 143.275 415.098 124.199 401.033 110.133L319.867 28.967C305.801 14.9018 286.725 7 266.833 7Z" stroke="black" stroke-opacity="0.1" stroke-width="14"/>
<path fill-rule="evenodd" clip-rule="evenodd" d="M283 49.7832C286.906 51.2201 290.495 53.4946 293.494 56.4939L375.506 138.506C378.248 141.248 380.384 144.482 381.828 148H283V49.7832ZM249 48V159C249 171.703 259.297 182 272 182H384V454H46V48H249Z" fill="#FF66AA"/>
<path d="M46 48H91L46 93V48Z" fill="#B44476"/>
<path d="M272 364H317L272 409V364Z" fill="#ED5B9D"/>
<path d="M272 274H317L272 319V274Z" fill="#ED5B9D"/>
<path d="M46 409H91L46 454V409Z" fill="#ED5B9D"/>
<path d="M272 409H317L272 454V409Z" fill="#ED5B9D"/>
<path d="M91 319H136L91 364V319Z" fill="#ED5B9D"/>
<path d="M317 319H362L317 364V319Z" fill="#ED5B9D"/>
<path d="M91 228H136L91 274V228Z" fill="#ED5B9D"/>
<path d="M91 364H136L91 409V364Z" fill="#ED5B9D"/>
<path d="M91 274H136L91 319V274Z" fill="#ED5B9D"/>
<path d="M317 274H362L317 319V274Z" fill="#ED5B9D"/>
<path d="M91 409H136L91 454V409Z" fill="#ED5B9D"/>
<path d="M136 48H181L136 93V48Z" fill="#ED5B9D"/>
<path d="M362 319H407L362 364V319Z" fill="#B44476"/>
<path d="M136 93H181L136 138V93Z" fill="#ED5B9D"/>
<path d="M136 228H181L136 274V228Z" fill="#ED5B9D"/>
<path d="M136 364H181L136 409V364Z" fill="#ED5B9D"/>
<path d="M181 183H226L181 228V183Z" fill="#ED5B9D"/>
<path d="M181 319H226L181 364V319Z" fill="#ED5B9D"/>
<path d="M181 138H226L181 183V138Z" fill="#ED5B9D"/>
<path d="M226 93H272L226 138V93Z" fill="#ED5B9D"/>
<path d="M226 364H272L226 409V364Z" fill="#ED5B9D"/>
<path d="M226 274H272L226 319V274Z" fill="#ED5B9D"/>
<path d="M91 228L46 228L91 183L91 228Z" fill="#ED5B9D"/>
<path d="M317 364L272 364L317 319L317 364Z" fill="#B44476"/>
<path d="M91 319L46 319L91 274L91 319Z" fill="#ED5B9D"/>
<path d="M136 93L91 93L136 48L136 93Z" fill="#ED5B9D"/>
<path d="M136 138L91 138L136 93L136 138Z" fill="#ED5B9D"/>
<path d="M136 274L91 274L136 228L136 274Z" fill="#ED5B9D"/>
<path d="M136 409L91 409L136 364L136 409Z" fill="#ED5B9D"/>
<path d="M362 409L317 409L362 364L362 409Z" fill="#ED5B9D"/>
<path d="M181 228L136 228L181 183L181 228Z" fill="#B44476"/>
<path d="M181 364L136 364L181 319L181 364Z" fill="#ED5B9D"/>
<path d="M226 93L181 93L226 48L226 93Z" fill="#ED5B9D"/>
<path d="M226 183L181 183L226 138L226 183Z" fill="#ED5B9D"/>
<path d="M272 228L226 228L272 183L272 228Z" fill="#ED5B9D"/>
<path d="M272 364L226 364L272 319L272 364Z" fill="#ED5B9D"/>
<path d="M272 183L226 183L272 138L272 183Z" fill="#ED5B9D"/>
<path fill-rule="evenodd" clip-rule="evenodd" d="M266.833 14C284.868 14 302.164 21.1643 314.917 33.9168L396.083 115.083C408.836 127.836 416 145.132 416 163.167V469C416 478.941 407.941 487 398 487H32C22.0589 487 14 478.941 14 469V32C14 22.0589 22.0589 14 32 14H266.833ZM293.494 56.4939C290.495 53.4946 286.906 51.2201 283 49.7832V148H381.828C380.384 144.482 378.248 141.248 375.506 138.506L293.494 56.4939ZM249 159V48H46V454H384V182H272C259.297 182 249 171.703 249 159Z" fill="white"/>
<path fill-rule="evenodd" clip-rule="evenodd" d="M139.98 250.192C134.625 251.933 131 256.924 131 262.554V288.112V317.112V377.892C124.498 374.895 116.348 373.112 107.5 373.112C86.237 373.112 69 383.409 69 396.112C69 408.814 86.237 419.112 107.5 419.112C128.763 419.112 146 408.814 146 396.112V312.234L239 281.99V346.892C232.498 343.895 224.348 342.112 215.5 342.112C194.237 342.112 177 352.409 177 365.112C177 377.814 194.237 388.112 215.5 388.112C236.763 388.112 254 377.814 254 365.112V277.112V259.112V231.01C254 222.176 245.38 215.915 236.98 218.647L139.98 250.192Z" fill="white"/>
</svg>
