<svg width="500" height="500" viewBox="0 0 500 500" fill="none" xmlns="http://www.w3.org/2000/svg">
<path d="M280.89 74.63V168.05C280.89 179.95 290.55 189.61 302.45 189.61H395.87V419.57H108.42V74.63H280.89Z" fill="#FF66AA"/>
<path d="M318.841 81.3701L389.131 151.66C390.701 153.23 392.721 157.05 394.071 160.87H309.631V76.4301C313.451 77.7801 317.271 79.8001 318.841 81.3701Z" fill="#FF66AA"/>
<path d="M107.77 112.72V74.3601H146.13L107.77 112.72Z" fill="#B34877"/>
<path d="M222.85 227.79H184.49L222.85 189.43V227.79Z" fill="#B34877"/>
<path d="M299.559 342.86H337.919V304.5L299.559 342.86Z" fill="#B34877"/>
<path d="M376.279 342.86V304.5H414.629L376.279 342.86Z" fill="#B34877"/>
<path d="M184.49 112.72V151.07L222.85 112.72H184.49Z" fill="#D95791"/>
<path d="M261.209 189.43H299.559V151.07L261.209 189.43Z" fill="#D95791"/>
<path d="M146.129 419.57V381.22H184.489L146.129 419.57Z" fill="#D95791"/>
<path d="M146.129 112.72H184.489L146.129 151.07H184.489V112.72V74.3601L146.129 112.72Z" fill="#EC5E9D"/>
<path d="M184.49 112.72V74.3601H222.85L184.49 112.72Z" fill="#EC5E9D"/>
<path d="M222.85 112.72L261.209 112.72V151.07L222.85 151.07V227.79L261.21 189.43L261.209 151.07L299.559 112.72H261.209L261.21 74.3601L222.85 112.72Z" fill="#EC5E9D"/>
<path d="M107.77 227.79H146.13V189.43L107.77 227.79Z" fill="#EC5E9D"/>
<path d="M146.129 266.14L146.13 227.79L184.489 227.79V266.14L146.13 304.499L184.489 304.5L146.129 342.86L146.13 304.499L107.77 304.5L146.129 266.14Z" fill="#EC5E9D"/>
<path d="M146.129 381.22V342.86H184.489V381.22H146.129Z" fill="#EC5E9D"/>
<path d="M146.129 381.22L107.77 419.57V381.22L146.129 381.22Z" fill="#EC5E9D"/>
<path d="M184.49 266.14V227.79L222.85 227.79L184.49 266.14Z" fill="#EC5E9D"/>
<path d="M299.559 227.79H261.209L299.559 189.43V227.79Z" fill="#EC5E9D"/>
<path d="M222.85 266.14L261.209 266.14V304.5H222.85L184.49 342.86V381.22L261.209 304.5L299.559 266.141V304.5L261.209 342.86V381.22L299.559 342.86V381.22V419.57L337.919 381.22L299.559 381.22L337.919 342.86H299.559V304.5L337.919 266.14L299.559 266.141L261.209 266.14V227.79L222.85 266.14Z" fill="#EC5E9D"/>
<path d="M337.92 266.14V304.5V342.86L376.28 304.5H337.92L376.28 266.14H337.92Z" fill="#EC5E9D"/>
<path d="M337.92 381.22H376.28V342.86L337.92 381.22Z" fill="#EC5E9D"/>
<path d="M414.629 419.57H376.279L414.629 381.22V419.57Z" fill="#EC5E9D"/>
<path d="M280.77 350.07C280.77 364.51 259.16 369.74 247.99 369.74C236.82 369.74 215.21 364.51 215.21 350.07C215.21 335.63 236.82 330.4 247.99 330.4C254.76 330.4 261.51 331.63 267.66 334.4V279.38L188.98 303.66V376.29C188.98 390.73 167.37 395.96 156.2 395.96C145.03 395.96 123.42 390.73 123.42 376.29C123.42 361.85 145.03 356.62 156.2 356.62C162.97 356.62 169.72 357.85 175.87 360.62V261.56C175.87 257.24 178.74 253.47 182.83 252.12L268.07 225.89C269 225.59 269.92 225.49 270.95 225.49C276.37 225.49 280.78 229.9 280.78 235.33V350.06L280.77 350.07Z" fill="white"/>
<path d="M339.28 61.1599C330.97 52.8499 314.35 45.8899 302.45 45.8899H101.23C89.3299 45.8899 79.6699 55.5499 79.6699 67.4499V426.77C79.6699 438.67 89.3299 448.33 101.23 448.33H403.06C414.96 448.33 424.62 438.67 424.62 426.77V168.05C424.62 156.15 417.66 139.53 409.35 131.22L339.28 61.1499V61.1599ZM309.64 76.4299C313.46 77.7799 317.28 79.7999 318.85 81.3699L389.14 151.66C390.71 153.23 392.73 157.05 394.08 160.87H309.64V76.4299ZM395.88 419.58H108.42V74.6299H280.89V168.05C280.89 179.95 290.55 189.61 302.45 189.61H395.87V419.57L395.88 419.58Z" fill="white"/>
</svg>
