<?xml version="1.0" encoding="UTF-8"?>
<!DOCTYPE svg PUBLIC "-//W3C//DTD SVG 1.1//EN" "http://www.w3.org/Graphics/SVG/1.1/DTD/svg11.dtd">
<svg xmlns="http://www.w3.org/2000/svg" version="1.1" width="1024px" height="1024px" style="shape-rendering:geometricPrecision; text-rendering:geometricPrecision; image-rendering:optimizeQuality; fill-rule:evenodd; clip-rule:evenodd" xmlns:xlink="http://www.w3.org/1999/xlink">
<g><path style="opacity:0.035" fill="#030203" d="M 495.5,62.5 C 617.238,59.5621 723.571,97.3954 814.5,176C 909.13,262.463 959.297,370.296 965,499.5C 968.067,639.473 919.234,756.973 818.5,852C 716.265,941.536 596.598,979.87 459.5,967C 319.683,948.593 210.516,881.76 132,766.5C 65.4207,659.722 44.0873,544.056 68,419.5C 102.545,274.364 186.378,169.197 319.5,104C 375.48,78.8386 434.146,65.0053 495.5,62.5 Z"/></g>
<g><path style="opacity:0.999" fill="#fdfafc" d="M 536.5,71.5 C 545.66,72.7765 554.994,73.7765 564.5,74.5C 568.298,75.4834 572.298,75.8168 576.5,75.5C 580.942,76.9901 585.609,77.9901 590.5,78.5C 593.287,79.4767 596.287,79.81 599.5,79.5C 602.907,81.0743 606.573,82.0743 610.5,82.5C 615.775,83.582 621.108,84.9153 626.5,86.5C 631.13,87.5942 635.797,88.9276 640.5,90.5C 642.167,91.1667 643.833,91.8333 645.5,92.5C 639.504,91.8663 633.504,91.6997 627.5,92C 702.714,113.81 767.714,152.31 822.5,207.5C 827.517,212.517 832.183,217.851 836.5,223.5C 835.451,225.216 834.118,226.549 832.5,227.5C 755.441,141.972 659.108,94.1385 543.5,84C 400.433,76.9773 281.267,126.477 186,232.5C 97.2527,340.486 65.9194,463.486 92,601.5C 112.567,693.352 157.734,770.352 227.5,832.5C 226.464,834.722 224.797,835.888 222.5,836C 215.663,829.995 208.996,823.829 202.5,817.5C 168.518,782.533 140.851,743.199 119.5,699.5C 99.832,657.159 86.832,612.825 80.5,566.5C 70.9959,480.912 84.3292,399.246 120.5,321.5C 179.858,205.994 271.858,129.494 396.5,92C 390.974,91.8439 385.641,91.6773 380.5,91.5C 381.791,91.7373 382.791,91.404 383.5,90.5C 388.215,88.9231 392.882,87.5898 397.5,86.5C 400.785,86.0719 403.785,85.0719 406.5,83.5C 409.059,83.8016 411.393,83.4682 413.5,82.5C 419.922,80.9731 426.255,79.6397 432.5,78.5C 441.595,76.8739 450.595,75.5405 459.5,74.5C 485.091,71.8823 510.758,70.8823 536.5,71.5 Z"/></g>
<g><path style="opacity:1" fill="#fff7fb" d="M 832.5,227.5 C 825.5,235.167 818.167,242.5 810.5,249.5C 810.167,249.5 809.833,249.5 809.5,249.5C 714.573,146.899 597.24,103.399 457.5,119C 326.569,140.39 228.402,208.224 163,322.5C 109.954,425.516 101.287,532.183 137,642.5C 160.492,707.786 197.992,763.452 249.5,809.5C 249.5,809.833 249.5,810.167 249.5,810.5C 242.5,818.167 235.167,825.5 227.5,832.5C 157.734,770.352 112.567,693.352 92,601.5C 65.9194,463.486 97.2527,340.486 186,232.5C 281.267,126.477 400.433,76.9773 543.5,84C 659.108,94.1385 755.441,141.972 832.5,227.5 Z"/></g>
<g><path style="opacity:0.999" fill="#f9f1f5" d="M 380.5,91.5 C 385.641,91.6773 390.974,91.8439 396.5,92C 271.858,129.494 179.858,205.994 120.5,321.5C 118.142,321.253 116.142,321.919 114.5,323.5C 139.273,270.186 173.607,223.686 217.5,184C 229.065,174.257 240.732,164.757 252.5,155.5C 258.35,151.743 264.017,147.743 269.5,143.5C 272.511,142.331 275.178,140.664 277.5,138.5C 279.434,137.89 281.101,136.89 282.5,135.5C 285.511,134.331 288.178,132.664 290.5,130.5C 293.437,129.528 296.103,128.195 298.5,126.5C 300.368,125.737 302.035,124.737 303.5,123.5C 306.872,121.814 310.205,120.147 313.5,118.5C 319.367,116.064 325.033,113.398 330.5,110.5C 332.368,109.737 334.035,108.737 335.5,107.5C 337.099,107.768 338.432,107.434 339.5,106.5C 342.485,105.674 345.151,104.341 347.5,102.5C 351.759,101.691 355.759,100.358 359.5,98.5C 363.253,97.1406 366.919,95.8073 370.5,94.5C 373.823,93.5075 377.156,92.5075 380.5,91.5 Z"/></g>
<g><path style="opacity:1" fill="#f9f2f5" d="M 645.5,92.5 C 648.402,93.5778 651.402,94.2444 654.5,94.5C 657.54,96.3459 660.873,97.6792 664.5,98.5C 667.756,99.7863 671.089,101.12 674.5,102.5C 677.756,103.786 681.089,105.12 684.5,106.5C 685.209,107.404 686.209,107.737 687.5,107.5C 689.181,109.008 691.181,110.008 693.5,110.5C 694.209,111.404 695.209,111.737 696.5,111.5C 703.516,115.675 710.849,119.341 718.5,122.5C 718.842,123.338 719.508,123.672 720.5,123.5C 722.336,125.588 724.669,126.921 727.5,127.5C 729.663,129.083 731.996,130.416 734.5,131.5C 736.336,133.588 738.669,134.921 741.5,135.5C 742.436,136.974 743.77,137.974 745.5,138.5C 754.158,144.164 762.825,149.83 771.5,155.5C 793.66,172.317 814.327,190.984 833.5,211.5C 830.588,211.211 828.588,209.711 827.5,207C 825.613,206.22 823.946,206.387 822.5,207.5C 767.714,152.31 702.714,113.81 627.5,92C 633.504,91.6997 639.504,91.8663 645.5,92.5 Z"/></g>
<g><path style="opacity:1" fill="#fffcfd" d="M 809.5,249.5 C 808.979,252.719 807.312,253.719 804.5,252.5C 789.484,235.819 773.151,220.486 755.5,206.5C 702.489,164.01 642.155,137.177 574.5,126C 473.169,111.066 379.502,131.399 293.5,187C 284.735,193.037 276.402,199.537 268.5,206.5C 193.557,266.529 146.557,343.863 127.5,438.5C 117.899,489.043 118.233,539.377 128.5,589.5C 136.832,628.511 150.499,665.511 169.5,700.5C 184.979,729.648 204.312,755.981 227.5,779.5C 227.369,780.239 227.536,780.906 228,781.5C 236.333,789.5 244.667,797.5 253,805.5C 253.168,807.841 252.001,809.174 249.5,809.5C 197.992,763.452 160.492,707.786 137,642.5C 101.287,532.183 109.954,425.516 163,322.5C 228.402,208.224 326.569,140.39 457.5,119C 597.24,103.399 714.573,146.899 809.5,249.5 Z"/></g>
<g><path style="opacity:1" fill="#fef3f8" d="M 755.5,206.5 C 753.801,206.34 752.134,206.506 750.5,207C 751.252,207.671 751.586,208.504 751.5,209.5C 742.366,202.027 732.699,195.361 722.5,189.5C 663.214,150.332 597.88,129.332 526.5,126.5C 516.167,126.5 505.833,126.5 495.5,126.5C 446.466,128.107 399.799,139.107 355.5,159.5C 340.227,166.135 325.56,173.802 311.5,182.5C 298.893,190.442 286.56,198.775 274.5,207.5C 272.621,206.659 270.621,206.325 268.5,206.5C 276.402,199.537 284.735,193.037 293.5,187C 379.502,131.399 473.169,111.066 574.5,126C 642.155,137.177 702.489,164.01 755.5,206.5 Z"/></g>
<g><path style="opacity:1" fill="#f36aa7" d="M 526.5,126.5 C 597.88,129.332 663.214,150.332 722.5,189.5C 711.167,208.5 699.833,227.5 688.5,246.5C 684.818,238.973 680.484,231.807 675.5,225C 670.136,224.829 664.802,224.329 659.5,223.5C 662.167,218.833 664.833,214.167 667.5,209.5C 664.422,204.414 661.256,199.414 658,194.5C 643.822,218.861 629.655,243.194 615.5,267.5C 612.108,262.395 608.941,257.062 606,251.5C 601.97,258.34 597.804,265.006 593.5,271.5C 587.755,263.384 582.755,254.717 578.5,245.5C 577.758,244.713 576.925,244.047 576,243.5C 572.771,235.793 568.938,228.46 564.5,221.5C 557.833,220.833 551.167,220.167 544.5,219.5C 547.268,214.224 550.268,209.057 553.5,204C 551.912,199.329 549.412,195.163 546,191.5C 544.939,186.769 542.606,182.769 539,179.5C 529.558,162.116 519.724,144.949 509.5,128C 515.348,127.827 521.015,127.327 526.5,126.5 Z"/></g>
<g><path style="opacity:1" fill="#fc74b1" d="M 355.5,159.5 C 369.171,159.333 382.837,159.5 396.5,160C 380.887,186.719 365.387,213.553 350,240.5C 349.292,241.381 348.458,242.047 347.5,242.5C 336.679,223.527 325.845,204.527 315,185.5C 314.241,183.937 313.074,182.937 311.5,182.5C 325.56,173.802 340.227,166.135 355.5,159.5 Z"/></g>
<g><path style="opacity:1" fill="#f36aa7" d="M 495.5,126.5 C 488.025,141.452 479.525,155.785 470,169.5C 459.4,189.72 448.067,209.386 436,228.5C 428.061,244.064 419.394,259.064 410,273.5C 403.129,285.817 396.129,298.151 389,310.5C 388.667,310.833 388.333,311.167 388,311.5C 381.272,300.278 374.772,288.945 368.5,277.5C 373.875,277.828 379.208,277.495 384.5,276.5C 377,263.5 369.5,250.5 362,237.5C 358.609,242.05 355.442,246.716 352.5,251.5C 351.61,248.052 349.943,245.052 347.5,242.5C 348.458,242.047 349.292,241.381 350,240.5C 365.387,213.553 380.887,186.719 396.5,160C 382.837,159.5 369.171,159.333 355.5,159.5C 399.799,139.107 446.466,128.107 495.5,126.5 Z"/></g>
<g><path style="opacity:1" fill="#ef66a3" d="M 495.5,126.5 C 505.833,126.5 516.167,126.5 526.5,126.5C 521.015,127.327 515.348,127.827 509.5,128C 519.724,144.949 529.558,162.116 539,179.5C 542.606,182.769 544.939,186.769 546,191.5C 549.412,195.163 551.912,199.329 553.5,204C 550.268,209.057 547.268,214.224 544.5,219.5C 551.167,220.167 557.833,220.833 564.5,221.5C 568.938,228.46 572.771,235.793 576,243.5C 576.925,244.047 577.758,244.713 578.5,245.5C 582.755,254.717 587.755,263.384 593.5,271.5C 587.299,283.563 580.799,295.563 574,307.5C 569.642,315.568 564.809,323.235 559.5,330.5C 506.163,330.167 452.829,330.5 399.5,331.5C 416.734,361.48 434.068,391.313 451.5,421C 450.429,421.852 449.429,422.685 448.5,423.5C 429.907,427.948 415.741,438.281 406,454.5C 403.715,459.973 402.215,465.64 401.5,471.5C 400.833,471.5 400.5,471.833 400.5,472.5C 399.673,477.985 399.173,483.652 399,489.5C 393.141,499.23 387.308,508.897 381.5,518.5C 381.468,508.438 380.634,498.438 379,488.5C 378.096,484.628 376.93,480.961 375.5,477.5C 364.428,446.097 342.428,427.764 309.5,422.5C 307.295,421.802 305.461,420.468 304,418.5C 275.253,368.003 246.253,317.67 217,267.5C 216.517,266.552 216.351,265.552 216.5,264.5C 233.896,243.437 253.229,224.437 274.5,207.5C 286.56,198.775 298.893,190.442 311.5,182.5C 313.074,182.937 314.241,183.937 315,185.5C 325.845,204.527 336.679,223.527 347.5,242.5C 349.943,245.052 351.61,248.052 352.5,251.5C 348.111,259.94 343.444,268.274 338.5,276.5C 348.478,277.499 358.478,277.832 368.5,277.5C 374.772,288.945 381.272,300.278 388,311.5C 388.333,311.167 388.667,310.833 389,310.5C 396.129,298.151 403.129,285.817 410,273.5C 419.394,259.064 428.061,244.064 436,228.5C 448.067,209.386 459.4,189.72 470,169.5C 479.525,155.785 488.025,141.452 495.5,126.5 Z"/></g>
<g><path style="opacity:1" fill="#fd74b1" d="M 722.5,189.5 C 732.699,195.361 742.366,202.027 751.5,209.5C 791.459,241.779 824.126,280.112 849.5,324.5C 861.091,346.013 870.757,368.346 878.5,391.5C 853.833,391.5 829.167,391.5 804.5,391.5C 804.81,394.713 804.477,397.713 803.5,400.5C 803.5,387.167 803.5,373.833 803.5,360.5C 786.189,358.447 768.856,358.113 751.5,359.5C 751.389,358.883 751.056,358.383 750.5,358C 765.303,356.195 780.136,356.029 795,357.5C 798.429,358.647 801.929,359.48 805.5,360C 804.39,362.737 804.223,365.571 805,368.5C 813.394,354.278 821.561,339.945 829.5,325.5C 767.627,324.346 705.627,324.18 643.5,325C 644.386,323.385 645.386,321.885 646.5,320.5C 660.928,296.073 674.928,271.406 688.5,246.5C 699.833,227.5 711.167,208.5 722.5,189.5 Z"/></g>
<g><path style="opacity:1" fill="#f067a4" d="M 688.5,246.5 C 674.928,271.406 660.928,296.073 646.5,320.5C 643.535,317.676 641.035,314.343 639,310.5C 630.614,296.39 622.781,282.057 615.5,267.5C 629.655,243.194 643.822,218.861 658,194.5C 661.256,199.414 664.422,204.414 667.5,209.5C 664.833,214.167 662.167,218.833 659.5,223.5C 664.802,224.329 670.136,224.829 675.5,225C 680.484,231.807 684.818,238.973 688.5,246.5 Z"/></g>
<g><path style="opacity:1" fill="#fe75b2" d="M 511.5,197.5 C 527.645,223.775 543.311,250.441 558.5,277.5C 527.5,278.833 496.5,278.833 465.5,277.5C 480.494,250.538 495.827,223.871 511.5,197.5 Z"/></g>
<g><path style="opacity:1" fill="#ffeef6" d="M 755.5,206.5 C 773.151,220.486 789.484,235.819 804.5,252.5C 807.312,253.719 808.979,252.719 809.5,249.5C 809.833,249.5 810.167,249.5 810.5,249.5C 818.407,260.287 826.573,270.953 835,281.5C 843.942,294.388 852.108,307.722 859.5,321.5C 859.631,322.239 859.464,322.906 859,323.5C 857.647,322.296 855.981,321.629 854,321.5C 852.5,321.667 851,321.833 849.5,322C 850.774,322.977 850.774,323.811 849.5,324.5C 824.126,280.112 791.459,241.779 751.5,209.5C 751.586,208.504 751.252,207.671 750.5,207C 752.134,206.506 753.801,206.34 755.5,206.5 Z"/></g>
<g><path style="opacity:1" fill="#fbedf4" d="M 833.5,211.5 C 864.443,244.031 889.443,280.698 908.5,321.5C 905.043,321.242 901.377,321.575 897.5,322.5C 880.161,287.836 858.494,256.169 832.5,227.5C 834.118,226.549 835.451,225.216 836.5,223.5C 832.183,217.851 827.517,212.517 822.5,207.5C 823.946,206.387 825.613,206.22 827.5,207C 828.588,209.711 830.588,211.211 833.5,211.5 Z"/></g>
<g><path style="opacity:1" fill="#ffb3d5" d="M 832.5,227.5 C 858.494,256.169 880.161,287.836 897.5,322.5C 914.71,358.522 927.043,396.189 934.5,435.5C 941.317,472.559 943.15,509.893 940,547.5C 937.832,563.507 935.666,579.507 933.5,595.5C 925.832,631.868 913.832,666.868 897.5,700.5C 875.794,743.896 847.794,782.896 813.5,817.5C 792.774,837.67 770.44,855.67 746.5,871.5C 638.458,938.737 522.458,957.07 398.5,926.5C 333.919,908.388 276.919,877.054 227.5,832.5C 235.167,825.5 242.5,818.167 249.5,810.5C 356.975,899.449 478.975,927.616 615.5,895C 635.72,889.316 655.387,882.149 674.5,873.5C 731.917,847.955 780.25,810.621 819.5,761.5C 848.116,727.288 869.782,688.954 884.5,646.5C 885.558,645.4 886.392,644.066 887,642.5C 895,618.001 900.833,593.001 904.5,567.5C 909.838,528.47 909.672,489.47 904,450.5C 903.001,444.994 901.835,439.66 900.5,434.5C 893.354,394.39 879.688,356.724 859.5,321.5C 852.108,307.722 843.942,294.388 835,281.5C 826.573,270.953 818.407,260.287 810.5,249.5C 818.167,242.5 825.5,235.167 832.5,227.5 Z"/></g>
<g><path style="opacity:1" fill="#fb72af" d="M 368.5,277.5 C 358.478,277.832 348.478,277.499 338.5,276.5C 343.444,268.274 348.111,259.94 352.5,251.5C 355.442,246.716 358.609,242.05 362,237.5C 369.5,250.5 377,263.5 384.5,276.5C 379.208,277.495 373.875,277.828 368.5,277.5 Z"/></g>
<g><path style="opacity:1" fill="#f76eab" d="M 615.5,267.5 C 622.781,282.057 630.614,296.39 639,310.5C 641.035,314.343 643.535,317.676 646.5,320.5C 645.386,321.885 644.386,323.385 643.5,325C 705.627,324.18 767.627,324.346 829.5,325.5C 769.163,325.167 708.83,325.5 648.5,326.5C 654.959,337.251 661.293,348.085 667.5,359C 658.814,359.168 650.148,359.668 641.5,360.5C 646.246,369.661 651.246,378.661 656.5,387.5C 657.002,388.521 657.668,388.688 658.5,388C 659.211,386.745 660.044,385.579 661,384.5C 668.727,397.388 676.227,410.388 683.5,423.5C 674.517,423.003 665.85,424.003 657.5,426.5C 656.833,426.5 656.167,426.5 655.5,426.5C 654.501,470.33 654.168,514.33 654.5,558.5C 653.5,558.5 652.5,558.5 651.5,558.5C 653.473,536.397 654.139,514.064 653.5,491.5C 639.5,491.5 625.5,491.5 611.5,491.5C 611.5,503.5 611.5,515.5 611.5,527.5C 610.503,508.674 610.17,489.674 610.5,470.5C 626.274,444.619 641.274,418.286 655.5,391.5C 637.83,391.667 620.164,391.5 602.5,391C 608.667,380.984 614.667,370.817 620.5,360.5C 600.769,359.18 581.102,359.18 561.5,360.5C 555.463,360.829 549.463,360.496 543.5,359.5C 548.862,349.816 554.195,340.15 559.5,330.5C 564.809,323.235 569.642,315.568 574,307.5C 580.799,295.563 587.299,283.563 593.5,271.5C 597.804,265.006 601.97,258.34 606,251.5C 608.941,257.062 612.108,262.395 615.5,267.5 Z"/></g>
<g><path style="opacity:1" fill="#f56daa" d="M 216.5,264.5 C 216.351,265.552 216.517,266.552 217,267.5C 246.253,317.67 275.253,368.003 304,418.5C 305.461,420.468 307.295,421.802 309.5,422.5C 276.955,417.402 249.788,427.068 228,451.5C 222.79,458.586 218.623,466.253 215.5,474.5C 211.561,468.207 207.561,461.873 203.5,455.5C 199.5,454.833 195.5,454.167 191.5,453.5C 194.448,449.956 195.948,445.956 196,441.5C 190.503,431.169 184.503,421.169 178,411.5C 174.141,417.897 170.308,424.23 166.5,430.5C 155.909,431.105 145.575,430.438 135.5,428.5C 148.723,366.723 175.723,312.057 216.5,264.5 Z"/></g>
<g><path style="opacity:1" fill="#feebf4" d="M 268.5,206.5 C 270.621,206.325 272.621,206.659 274.5,207.5C 253.229,224.437 233.896,243.437 216.5,264.5C 175.723,312.057 148.723,366.723 135.5,428.5C 132.674,437.573 130.674,446.906 129.5,456.5C 128.853,455.726 128.52,454.726 128.5,453.5C 129.394,447.799 130.394,442.133 131.5,436.5C 129.801,436.527 128.467,437.194 127.5,438.5C 146.557,343.863 193.557,266.529 268.5,206.5 Z"/></g>
<g><path style="opacity:1" fill="#ffe9f3" d="M 859.5,321.5 C 879.688,356.724 893.354,394.39 900.5,434.5C 900.649,435.552 900.483,436.552 900,437.5C 897.619,436.565 895.119,436.232 892.5,436.5C 893.035,440.511 893.702,444.511 894.5,448.5C 894.48,449.726 894.147,450.726 893.5,451.5C 890.206,431.071 885.206,411.071 878.5,391.5C 870.757,368.346 861.091,346.013 849.5,324.5C 850.774,323.811 850.774,322.977 849.5,322C 851,321.833 852.5,321.667 854,321.5C 855.981,321.629 857.647,322.296 859,323.5C 859.464,322.906 859.631,322.239 859.5,321.5 Z"/></g>
<g><path style="opacity:1" fill="#fbe8f1" d="M 908.5,321.5 C 926.836,358.101 939.17,396.768 945.5,437.5C 941.833,436.833 938.167,436.167 934.5,435.5C 927.043,396.189 914.71,358.522 897.5,322.5C 901.377,321.575 905.043,321.242 908.5,321.5 Z"/></g>
<g><path style="opacity:1" fill="#f168a5" d="M 829.5,325.5 C 821.561,339.945 813.394,354.278 805,368.5C 804.223,365.571 804.39,362.737 805.5,360C 801.929,359.48 798.429,358.647 795,357.5C 780.136,356.029 765.303,356.195 750.5,358C 751.056,358.383 751.389,358.883 751.5,359.5C 748.794,359.575 746.127,359.908 743.5,360.5C 743.796,403.173 744.463,445.84 745.5,488.5C 746.115,502.158 746.448,515.825 746.5,529.5C 764.203,532.314 781.87,532.147 799.5,529C 801.441,522.115 802.108,514.948 801.5,507.5C 801.795,471.825 802.461,436.159 803.5,400.5C 804.477,397.713 804.81,394.713 804.5,391.5C 829.167,391.5 853.833,391.5 878.5,391.5C 885.206,411.071 890.206,431.071 893.5,451.5C 894.495,458.13 895.162,464.797 895.5,471.5C 894.596,470.791 894.263,469.791 894.5,468.5C 868.498,468.333 842.498,468.5 816.5,469C 832.148,496.477 848.148,523.643 864.5,550.5C 850.753,574.997 836.753,599.33 822.5,623.5C 816.608,614.733 810.941,605.733 805.5,596.5C 804.52,593.914 804.187,591.247 804.5,588.5C 804.888,574.753 804.222,561.086 802.5,547.5C 799.633,546.226 796.633,545.393 793.5,545C 777.091,543.985 760.757,544.485 744.5,546.5C 741.918,564.521 741.918,582.521 744.5,600.5C 743.883,600.611 743.383,600.944 743,601.5C 732.747,583.996 722.747,566.329 713,548.5C 712.831,564.339 712.331,580.005 711.5,595.5C 711.832,538.998 711.499,482.664 710.5,426.5C 705.196,425.616 699.863,424.949 694.5,424.5C 691.038,423.518 687.371,423.185 683.5,423.5C 676.227,410.388 668.727,397.388 661,384.5C 660.044,385.579 659.211,386.745 658.5,388C 657.668,388.688 657.002,388.521 656.5,387.5C 651.246,378.661 646.246,369.661 641.5,360.5C 650.148,359.668 658.814,359.168 667.5,359C 661.293,348.085 654.959,337.251 648.5,326.5C 708.83,325.5 769.163,325.167 829.5,325.5 Z"/></g>
<g><path style="opacity:1" fill="#f46ba8" d="M 559.5,330.5 C 554.195,340.15 548.862,349.816 543.5,359.5C 549.463,360.496 555.463,360.829 561.5,360.5C 548.467,383.853 535.467,407.187 522.5,430.5C 498.379,422.277 473.712,419.944 448.5,423.5C 449.429,422.685 450.429,421.852 451.5,421C 434.068,391.313 416.734,361.48 399.5,331.5C 452.829,330.5 506.163,330.167 559.5,330.5 Z"/></g>
<g><path style="opacity:1" fill="#fee6f1" d="M 803.5,400.5 C 802.461,436.159 801.795,471.825 801.5,507.5C 800.834,510.689 800.167,514.023 799.5,517.5C 796.793,516.422 794.126,515.422 791.5,514.5C 791.5,499.5 791.5,484.5 791.5,469.5C 791.8,436.158 792.467,402.825 793.5,369.5C 780.496,368.189 767.496,368.189 754.5,369.5C 755.039,413.836 755.706,458.169 756.5,502.5C 753.345,500.924 750.012,499.924 746.5,499.5C 746.815,495.629 746.482,491.962 745.5,488.5C 744.463,445.84 743.796,403.173 743.5,360.5C 746.127,359.908 748.794,359.575 751.5,359.5C 768.856,358.113 786.189,358.447 803.5,360.5C 803.5,373.833 803.5,387.167 803.5,400.5 Z"/></g>
<g><path style="opacity:1" fill="#ef66a3" d="M 610.5,470.5 C 610.829,455.657 610.496,440.99 609.5,426.5C 604.833,425.833 600.167,425.167 595.5,424.5C 591.012,423.834 586.346,423.501 581.5,423.5C 574.27,423.333 567.27,423.999 560.5,425.5C 558.379,425.325 556.379,425.659 554.5,426.5C 553.336,462.664 553.169,498.998 554,535.5C 554.489,558.304 562.989,577.471 579.5,593C 590.385,600.439 602.385,605.105 615.5,607C 626.489,607.794 637.489,608.294 648.5,608.5C 645.311,609.166 641.977,609.833 638.5,610.5C 634.96,617.081 631.293,623.581 627.5,630C 608.833,630.333 590.167,630.667 571.5,631C 581.295,646.594 590.295,662.594 598.5,679C 588.76,696.481 578.76,713.814 568.5,731C 588.833,731.333 609.167,731.667 629.5,732C 633.066,737.651 636.733,743.151 640.5,748.5C 631.765,764.302 622.765,779.969 613.5,795.5C 654.495,796.5 695.495,796.833 736.5,796.5C 713.996,797.167 691.33,797.833 668.5,798.5C 678.605,815.317 688.272,832.317 697.5,849.5C 682.93,857.618 667.93,864.951 652.5,871.5C 644.512,874.165 636.512,876.831 628.5,879.5C 629.028,878.153 629.195,876.819 629,875.5C 577.514,786.532 526.014,697.532 474.5,608.5C 472.955,607.548 471.288,607.215 469.5,607.5C 494.342,605.159 513.508,593.492 527,572.5C 536.31,551.931 535.31,531.931 524,512.5C 518.332,505.754 511.499,500.587 503.5,497C 489.167,492 474.833,487 460.5,482C 456.92,478.442 456.587,474.609 459.5,470.5C 463.755,467.301 468.588,465.968 474,466.5C 480.853,467.027 487.687,467.694 494.5,468.5C 501.413,470.696 508.246,473.363 515,476.5C 516.993,474.182 518.159,471.516 518.5,468.5C 524.316,457.234 526.982,445.234 526.5,432.5C 524.974,432.006 523.641,431.339 522.5,430.5C 535.467,407.187 548.467,383.853 561.5,360.5C 581.102,359.18 600.769,359.18 620.5,360.5C 614.667,370.817 608.667,380.984 602.5,391C 620.164,391.5 637.83,391.667 655.5,391.5C 641.274,418.286 626.274,444.619 610.5,470.5 Z"/></g>
<g><path style="opacity:1" fill="#f8b3d2" d="M 791.5,469.5 C 790.503,485.992 790.17,502.658 790.5,519.5C 779.498,520.797 768.498,520.797 757.5,519.5C 757.24,513.828 756.907,508.161 756.5,502.5C 755.706,458.169 755.039,413.836 754.5,369.5C 767.496,368.189 780.496,368.189 793.5,369.5C 792.467,402.825 791.8,436.158 791.5,469.5 Z"/></g>
<g><path style="opacity:1" fill="#fc74b0" d="M 215.5,474.5 C 213.176,481.127 211.51,487.794 210.5,494.5C 210.657,493.127 210.49,491.793 210,490.5C 197.056,491.824 183.89,492.49 170.5,492.5C 157.5,492.167 144.5,491.833 131.5,491.5C 143.443,471.275 155.11,450.942 166.5,430.5C 170.308,424.23 174.141,417.897 178,411.5C 184.503,421.169 190.503,431.169 196,441.5C 195.948,445.956 194.448,449.956 191.5,453.5C 195.5,454.167 199.5,454.833 203.5,455.5C 207.561,461.873 211.561,468.207 215.5,474.5 Z"/></g>
<g><path style="opacity:1" fill="#fee5f1" d="M 522.5,430.5 C 523.641,431.339 524.974,432.006 526.5,432.5C 526.982,445.234 524.316,457.234 518.5,468.5C 516.833,468.5 515.167,468.5 513.5,468.5C 518.328,458.015 521.328,447.015 522.5,435.5C 511.051,432.176 499.384,429.676 487.5,428C 471.223,426.373 455.223,427.706 439.5,432C 415.94,441.622 404.94,459.122 406.5,484.5C 405.527,482.052 405.194,479.385 405.5,476.5C 404.167,476.5 402.833,476.5 401.5,476.5C 401.5,474.833 401.5,473.167 401.5,471.5C 402.215,465.64 403.715,459.973 406,454.5C 415.741,438.281 429.907,427.948 448.5,423.5C 473.712,419.944 498.379,422.277 522.5,430.5 Z"/></g>
<g><path style="opacity:1" fill="#f9b7d5" d="M 595.5,424.5 C 583.815,424.365 572.148,424.698 560.5,425.5C 567.27,423.999 574.27,423.333 581.5,423.5C 586.346,423.501 591.012,423.834 595.5,424.5 Z"/></g>
<g><path style="opacity:1" fill="#fbbcd8" d="M 683.5,423.5 C 687.371,423.185 691.038,423.518 694.5,424.5C 682.099,424.156 669.766,424.823 657.5,426.5C 665.85,424.003 674.517,423.003 683.5,423.5 Z"/></g>
<g><path style="opacity:1" fill="#fee7f2" d="M 595.5,424.5 C 600.167,425.167 604.833,425.833 609.5,426.5C 609.5,441.833 609.5,457.167 609.5,472.5C 606.061,472.747 602.728,472.414 599.5,471.5C 599.813,467.958 599.479,464.625 598.5,461.5C 600.771,459.734 602.937,457.734 605,455.5C 605.5,447.173 605.666,438.84 605.5,430.5C 590.158,429.223 574.824,429.223 559.5,430.5C 559.169,453.673 559.502,476.673 560.5,499.5C 560.44,500.043 560.107,500.376 559.5,500.5C 558.501,490.188 558.168,479.855 558.5,469.5C 557.167,469.5 555.833,469.5 554.5,469.5C 554.5,455.167 554.5,440.833 554.5,426.5C 556.379,425.659 558.379,425.325 560.5,425.5C 572.148,424.698 583.815,424.365 595.5,424.5 Z"/></g>
<g><path style="opacity:1" fill="#fee7f2" d="M 694.5,424.5 C 699.863,424.949 705.196,425.616 710.5,426.5C 710.833,447.511 710.5,468.511 709.5,489.5C 706.601,488.358 703.601,487.692 700.5,487.5C 700.5,470.167 700.5,452.833 700.5,435.5C 688.838,434.192 677.171,434.192 665.5,435.5C 665.5,450.5 665.5,465.5 665.5,480.5C 662.14,480.384 658.807,480.051 655.5,479.5C 655.5,461.833 655.5,444.167 655.5,426.5C 656.167,426.5 656.833,426.5 657.5,426.5C 669.766,424.823 682.099,424.156 694.5,424.5 Z"/></g>
<g><path style="opacity:1" fill="#ef66a3" d="M 135.5,428.5 C 145.575,430.438 155.909,431.105 166.5,430.5C 155.11,450.942 143.443,471.275 131.5,491.5C 144.5,491.833 157.5,492.167 170.5,492.5C 183.89,492.49 197.056,491.824 210,490.5C 210.49,491.793 210.657,493.127 210.5,494.5C 209.186,507.179 209.186,519.846 210.5,532.5C 217.3,581.301 245.3,606.635 294.5,608.5C 301.169,608.025 307.835,607.525 314.5,607C 320.822,605.059 327.155,603.225 333.5,601.5C 301.849,658.136 269.682,714.47 237,770.5C 235.64,773.023 233.807,775.023 231.5,776.5C 230.833,776.5 230.5,776.167 230.5,775.5C 209.1,752.112 190.433,726.778 174.5,699.5C 160.391,672.698 148.891,644.698 140,615.5C 137.114,603.389 134.281,591.389 131.5,579.5C 125.674,538.582 125.007,497.582 129.5,456.5C 130.674,446.906 132.674,437.573 135.5,428.5 Z"/></g>
<g><path style="opacity:0.998" fill="#f6dfea" d="M 120.5,321.5 C 84.3292,399.246 70.9959,480.912 80.5,566.5C 79.8501,566.804 79.1835,567.137 78.5,567.5C 77.6858,569.766 77.1858,572.1 77,574.5C 76.79,572.942 76.29,571.609 75.5,570.5C 65.9192,493.759 75.0859,419.426 103,347.5C 106.063,339.044 109.896,331.044 114.5,323.5C 116.142,321.919 118.142,321.253 120.5,321.5 Z"/></g>
<g><path style="opacity:1" fill="#fef7fa" d="M 371.5,481.5 C 378.197,508.341 376.697,534.674 367,560.5C 355.04,584.77 335.54,598.603 308.5,602C 278.589,606.972 253.423,598.472 233,576.5C 222.968,562.769 217.135,547.436 215.5,530.5C 211.094,501.907 217.26,475.907 234,452.5C 244.548,440.958 257.381,433.124 272.5,429C 299.255,423.482 323.922,428.149 346.5,443C 358.688,453.35 367.021,466.183 371.5,481.5 Z"/></g>
<g><path style="opacity:1" fill="#fef7fa" d="M 513.5,468.5 C 512.065,469.096 510.398,469.096 508.5,468.5C 493.065,461.799 477.065,460.299 460.5,464C 457.013,464.989 454.68,467.155 453.5,470.5C 450.765,480.524 454.431,487.024 464.5,490C 480.506,493.89 495.84,499.557 510.5,507C 519.995,513.805 525.162,522.972 526,534.5C 524.293,536.037 522.793,537.704 521.5,539.5C 502.167,558.167 483.167,577.167 464.5,596.5C 462.37,598.127 460.37,599.96 458.5,602C 439.909,604.185 421.909,601.852 404.5,595C 403.316,593.82 402.649,592.32 402.5,590.5C 403.074,584.623 404.408,578.956 406.5,573.5C 407.461,568.744 409.127,564.244 411.5,560C 413.167,559.333 414.833,559.333 416.5,560C 422.796,563.209 429.462,565.209 436.5,566C 445.5,566.667 454.5,566.667 463.5,566C 471.395,564.81 477.561,560.976 482,554.5C 482.667,550.5 482.667,546.5 482,542.5C 480.878,540.376 479.378,538.543 477.5,537C 463.699,531.768 449.699,527.101 435.5,523C 417.65,516.318 407.983,503.485 406.5,484.5C 404.94,459.122 415.94,441.622 439.5,432C 455.223,427.706 471.223,426.373 487.5,428C 499.384,429.676 511.051,432.176 522.5,435.5C 521.328,447.015 518.328,458.015 513.5,468.5 Z"/></g>
<g><path style="opacity:1" fill="#fee1ef" d="M 129.5,456.5 C 125.007,497.582 125.674,538.582 131.5,579.5C 131.25,580.922 130.417,581.922 129,582.5C 128.503,584.81 128.337,587.143 128.5,589.5C 118.233,539.377 117.899,489.043 127.5,438.5C 128.467,437.194 129.801,436.527 131.5,436.5C 130.394,442.133 129.394,447.799 128.5,453.5C 128.52,454.726 128.853,455.726 129.5,456.5 Z"/></g>
<g><path style="opacity:1" fill="#fee4f0" d="M 309.5,422.5 C 342.428,427.764 364.428,446.097 375.5,477.5C 375.5,478.833 375.5,480.167 375.5,481.5C 374.167,481.5 372.833,481.5 371.5,481.5C 367.021,466.183 358.688,453.35 346.5,443C 323.922,428.149 299.255,423.482 272.5,429C 257.381,433.124 244.548,440.958 234,452.5C 217.26,475.907 211.094,501.907 215.5,530.5C 213.716,530.893 212.05,531.559 210.5,532.5C 209.186,519.846 209.186,507.179 210.5,494.5C 211.51,487.794 213.176,481.127 215.5,474.5C 218.623,466.253 222.79,458.586 228,451.5C 249.788,427.068 276.955,417.402 309.5,422.5 Z"/></g>
<g><path style="opacity:1" fill="#ffe1ef" d="M 900.5,434.5 C 901.835,439.66 903.001,444.994 904,450.5C 909.672,489.47 909.838,528.47 904.5,567.5C 903.698,568.952 903.198,570.618 903,572.5C 898.945,570.94 896.112,568.274 894.5,564.5C 897.305,538.061 897.972,511.727 896.5,485.5C 896.717,480.77 896.383,476.103 895.5,471.5C 895.162,464.797 894.495,458.13 893.5,451.5C 894.147,450.726 894.48,449.726 894.5,448.5C 893.702,444.511 893.035,440.511 892.5,436.5C 895.119,436.232 897.619,436.565 900,437.5C 900.483,436.552 900.649,435.552 900.5,434.5 Z"/></g>
<g><path style="opacity:0.999" fill="#fbe0ed" d="M 934.5,435.5 C 938.167,436.167 941.833,436.833 945.5,437.5C 947.631,449.973 949.465,462.64 951,475.5C 953.979,518.639 951.146,561.306 942.5,603.5C 941.778,603.918 941.278,604.584 941,605.5C 937.449,602.806 934.949,599.472 933.5,595.5C 935.666,579.507 937.832,563.507 940,547.5C 943.15,509.893 941.317,472.559 934.5,435.5 Z"/></g>
<g><path style="opacity:1" fill="#fee5f1" d="M 508.5,468.5 C 503.833,468.5 499.167,468.5 494.5,468.5C 487.687,467.694 480.853,467.027 474,466.5C 468.588,465.968 463.755,467.301 459.5,470.5C 457.5,470.5 455.5,470.5 453.5,470.5C 454.68,467.155 457.013,464.989 460.5,464C 477.065,460.299 493.065,461.799 508.5,468.5 Z"/></g>
<g><path style="opacity:1" fill="#fee4f0" d="M 326.5,491.5 C 324.784,491.629 323.117,491.962 321.5,492.5C 317.742,473.931 306.409,466.098 287.5,469C 276.28,473.238 269.78,481.405 268,493.5C 267.433,498.834 266.933,504.167 266.5,509.5C 264.883,510.038 263.216,510.371 261.5,510.5C 260.31,494.568 264.977,480.735 275.5,469C 278.554,466.806 281.888,465.139 285.5,464C 308.053,460.258 321.72,469.424 326.5,491.5 Z"/></g>
<g><path style="opacity:1" fill="#fec8e1" d="M 494.5,468.5 C 499.167,468.5 503.833,468.5 508.5,468.5C 510.398,469.096 512.065,469.096 513.5,468.5C 515.167,468.5 516.833,468.5 518.5,468.5C 518.159,471.516 516.993,474.182 515,476.5C 508.246,473.363 501.413,470.696 494.5,468.5 Z"/></g>
<g><path style="opacity:1" fill="#ef66a3" d="M 321.5,492.5 C 323.975,506.775 324.142,521.108 322,535.5C 317.48,559.574 303.646,567.408 280.5,559C 273.322,552.813 269.155,544.98 268,535.5C 266.703,526.886 266.203,518.219 266.5,509.5C 266.933,504.167 267.433,498.834 268,493.5C 269.78,481.405 276.28,473.238 287.5,469C 306.409,466.098 317.742,473.931 321.5,492.5 Z"/></g>
<g><path style="opacity:1" fill="#e85f9c" d="M 895.5,471.5 C 896.383,476.103 896.717,480.77 896.5,485.5C 896.665,489.182 896.499,492.848 896,496.5C 885.726,514.727 875.226,532.727 864.5,550.5C 848.148,523.643 832.148,496.477 816.5,469C 842.498,468.5 868.498,468.333 894.5,468.5C 894.263,469.791 894.596,470.791 895.5,471.5 Z"/></g>
<g><path style="opacity:1" fill="#eb629f" d="M 400.5,472.5 C 398.015,499.151 409.015,517.651 433.5,528C 446.149,531.994 458.815,535.994 471.5,540C 479.079,545.167 479.412,550.833 472.5,557C 468.497,559.207 464.164,560.54 459.5,561C 453.167,561.667 446.833,561.667 440.5,561C 429.635,558.703 418.969,556.037 408.5,553C 404.69,561.223 401.69,569.723 399.5,578.5C 398.269,583.943 397.269,589.443 396.5,595C 396.585,596.107 396.919,597.107 397.5,598C 420.68,607.224 444.68,610.391 469.5,607.5C 471.288,607.215 472.955,607.548 474.5,608.5C 526.014,697.532 577.514,786.532 629,875.5C 629.195,876.819 629.028,878.153 628.5,879.5C 612.543,884.906 596.209,888.906 579.5,891.5C 559.861,857.517 540.194,823.517 520.5,789.5C 501.842,788.667 483.176,788.167 464.5,788C 473.738,772.272 482.738,756.438 491.5,740.5C 485.276,727.717 478.276,715.383 470.5,703.5C 437.844,758.136 405.677,813.136 374,868.5C 373.383,869.449 373.549,870.282 374.5,871C 373.906,871.464 373.239,871.631 372.5,871.5C 341.039,859.647 312.039,843.647 285.5,823.5C 303.671,822.833 322.004,822.167 340.5,821.5C 325,794.5 309.5,767.5 294,740.5C 281.807,760.897 269.641,781.23 257.5,801.5C 248.2,793.867 239.533,785.534 231.5,776.5C 233.807,775.023 235.64,773.023 237,770.5C 269.682,714.47 301.849,658.136 333.5,601.5C 356.659,589.547 371.492,570.881 378,545.5C 379.741,536.574 380.907,527.574 381.5,518.5C 387.308,508.897 393.141,499.23 399,489.5C 399.173,483.652 399.673,477.985 400.5,472.5 Z"/></g>
<g><path style="opacity:1" fill="#fc74b1" d="M 896.5,485.5 C 897.972,511.727 897.305,538.061 894.5,564.5C 890.334,592.494 883.334,619.827 873.5,646.5C 869.019,658.122 864.019,669.456 858.5,680.5C 836.515,678.839 814.182,677.839 791.5,677.5C 795.528,670.483 799.528,663.483 803.5,656.5C 815.439,655.852 827.439,655.186 839.5,654.5C 833.555,644.273 827.888,633.94 822.5,623.5C 836.753,599.33 850.753,574.997 864.5,550.5C 875.226,532.727 885.726,514.727 896,496.5C 896.499,492.848 896.665,489.182 896.5,485.5 Z"/></g>
<g><path style="opacity:1" fill="#fecae3" d="M 791.5,469.5 C 791.5,484.5 791.5,499.5 791.5,514.5C 794.126,515.422 796.793,516.422 799.5,517.5C 800.167,514.023 800.834,510.689 801.5,507.5C 802.108,514.948 801.441,522.115 799.5,529C 781.87,532.147 764.203,532.314 746.5,529.5C 746.448,515.825 746.115,502.158 745.5,488.5C 746.482,491.962 746.815,495.629 746.5,499.5C 750.012,499.924 753.345,500.924 756.5,502.5C 756.907,508.161 757.24,513.828 757.5,519.5C 768.498,520.797 779.498,520.797 790.5,519.5C 790.17,502.658 790.503,485.992 791.5,469.5 Z"/></g>
<g><path style="opacity:1" fill="#fecee5" d="M 326.5,491.5 C 328.051,498.934 328.718,506.6 328.5,514.5C 330.114,529.983 326.948,544.316 319,557.5C 309.759,566.939 298.592,570.106 285.5,567C 273.787,562.446 266.62,553.946 264,541.5C 261.987,531.263 261.153,520.93 261.5,510.5C 263.216,510.371 264.883,510.038 266.5,509.5C 266.203,518.219 266.703,526.886 268,535.5C 269.155,544.98 273.322,552.813 280.5,559C 303.646,567.408 317.48,559.574 322,535.5C 324.142,521.108 323.975,506.775 321.5,492.5C 323.117,491.962 324.784,491.629 326.5,491.5 Z"/></g>
<g><path style="opacity:1" fill="#fecde4" d="M 401.5,471.5 C 401.5,473.167 401.5,474.833 401.5,476.5C 402.833,476.5 404.167,476.5 405.5,476.5C 405.194,479.385 405.527,482.052 406.5,484.5C 407.983,503.485 417.65,516.318 435.5,523C 449.699,527.101 463.699,531.768 477.5,537C 479.378,538.543 480.878,540.376 482,542.5C 482.667,546.5 482.667,550.5 482,554.5C 477.561,560.976 471.395,564.81 463.5,566C 454.5,566.667 445.5,566.667 436.5,566C 429.462,565.209 422.796,563.209 416.5,560C 414.833,559.333 413.167,559.333 411.5,560C 409.127,564.244 407.461,568.744 406.5,573.5C 405.213,574.768 404.213,574.435 403.5,572.5C 402.508,574.807 401.175,576.807 399.5,578.5C 401.69,569.723 404.69,561.223 408.5,553C 418.969,556.037 429.635,558.703 440.5,561C 446.833,561.667 453.167,561.667 459.5,561C 464.164,560.54 468.497,559.207 472.5,557C 479.412,550.833 479.079,545.167 471.5,540C 458.815,535.994 446.149,531.994 433.5,528C 409.015,517.651 398.015,499.151 400.5,472.5C 400.5,471.833 400.833,471.5 401.5,471.5 Z"/></g>
<g><path style="opacity:1" fill="#f8b3d2" d="M 521.5,539.5 C 523.565,563.314 513.565,580.147 491.5,590C 483.068,594.513 474.068,596.679 464.5,596.5C 483.167,577.167 502.167,558.167 521.5,539.5 Z"/></g>
<g><path style="opacity:1" fill="#eb619e" d="M 744.5,600.5 C 744.33,601.822 744.663,602.989 745.5,604C 759.413,606.164 773.413,606.997 787.5,606.5C 783.018,607.326 778.351,607.826 773.5,608C 764.852,622.946 756.019,637.779 747,652.5C 746.517,653.448 746.351,654.448 746.5,655.5C 765.674,655.17 784.674,655.503 803.5,656.5C 799.528,663.483 795.528,670.483 791.5,677.5C 814.182,677.839 836.515,678.839 858.5,680.5C 851.107,696.293 842.44,711.293 832.5,725.5C 830.259,721.407 827.759,717.407 825,713.5C 821.392,719.734 817.559,725.734 813.5,731.5C 775.485,730.839 737.819,731.506 700.5,733.5C 691.774,719.06 683.274,704.393 675,689.5C 663.488,709.194 651.988,728.861 640.5,748.5C 636.733,743.151 633.066,737.651 629.5,732C 609.167,731.667 588.833,731.333 568.5,731C 578.76,713.814 588.76,696.481 598.5,679C 590.295,662.594 581.295,646.594 571.5,631C 590.167,630.667 608.833,630.333 627.5,630C 631.293,623.581 634.96,617.081 638.5,610.5C 641.977,609.833 645.311,609.166 648.5,608.5C 662.333,607.973 676,606.139 689.5,603C 697.117,600.962 704.451,598.462 711.5,595.5C 712.331,580.005 712.831,564.339 713,548.5C 722.747,566.329 732.747,583.996 743,601.5C 743.383,600.944 743.883,600.611 744.5,600.5 Z"/></g>
<g><path style="opacity:1" fill="#f76eab" d="M 223.5,580.5 C 240.193,607.217 255.86,634.55 270.5,662.5C 239.165,662.667 207.832,662.5 176.5,662C 192.305,634.888 207.971,607.721 223.5,580.5 Z"/></g>
<g><path style="opacity:1" fill="#fed1e6" d="M 453.5,470.5 C 455.5,470.5 457.5,470.5 459.5,470.5C 456.587,474.609 456.92,478.442 460.5,482C 474.833,487 489.167,492 503.5,497C 511.499,500.587 518.332,505.754 524,512.5C 535.31,531.931 536.31,551.931 527,572.5C 513.508,593.492 494.342,605.159 469.5,607.5C 444.68,610.391 420.68,607.224 397.5,598C 396.919,597.107 396.585,596.107 396.5,595C 397.269,589.443 398.269,583.943 399.5,578.5C 401.175,576.807 402.508,574.807 403.5,572.5C 404.213,574.435 405.213,574.768 406.5,573.5C 404.408,578.956 403.074,584.623 402.5,590.5C 402.649,592.32 403.316,593.82 404.5,595C 421.909,601.852 439.909,604.185 458.5,602C 460.37,599.96 462.37,598.127 464.5,596.5C 474.068,596.679 483.068,594.513 491.5,590C 513.565,580.147 523.565,563.314 521.5,539.5C 522.793,537.704 524.293,536.037 526,534.5C 525.162,522.972 519.995,513.805 510.5,507C 495.84,499.557 480.506,493.89 464.5,490C 454.431,487.024 450.765,480.524 453.5,470.5 Z"/></g>
<g><path style="opacity:1" fill="#ffd5e8" d="M 894.5,564.5 C 896.112,568.274 898.945,570.94 903,572.5C 903.198,570.618 903.698,568.952 904.5,567.5C 900.833,593.001 895,618.001 887,642.5C 886.392,644.066 885.558,645.4 884.5,646.5C 880.622,646.305 876.956,646.305 873.5,646.5C 883.334,619.827 890.334,592.494 894.5,564.5 Z"/></g>
<g><path style="opacity:1" fill="#fed2e7" d="M 804.5,588.5 C 803.784,593.034 803.117,597.701 802.5,602.5C 797.53,604.354 792.53,605.687 787.5,606.5C 773.413,606.997 759.413,606.164 745.5,604C 744.663,602.989 744.33,601.822 744.5,600.5C 741.918,582.521 741.918,564.521 744.5,546.5C 760.757,544.485 777.091,543.985 793.5,545C 796.633,545.393 799.633,546.226 802.5,547.5C 804.222,561.086 804.888,574.753 804.5,588.5 Z"/></g>
<g><path style="opacity:1" fill="#f8b3d2" d="M 754.5,555.5 C 767.167,555.5 779.833,555.5 792.5,555.5C 795.112,568.492 795.112,581.492 792.5,594.5C 779.829,595.811 767.162,595.811 754.5,594.5C 753.167,581.5 753.167,568.5 754.5,555.5 Z"/></g>
<g><path style="opacity:1" fill="#fed2e6" d="M 375.5,477.5 C 376.93,480.961 378.096,484.628 379,488.5C 380.634,498.438 381.468,508.438 381.5,518.5C 380.907,527.574 379.741,536.574 378,545.5C 371.492,570.881 356.659,589.547 333.5,601.5C 327.155,603.225 320.822,605.059 314.5,607C 307.835,607.525 301.169,608.025 294.5,608.5C 245.3,606.635 217.3,581.301 210.5,532.5C 212.05,531.559 213.716,530.893 215.5,530.5C 217.135,547.436 222.968,562.769 233,576.5C 253.423,598.472 278.589,606.972 308.5,602C 335.54,598.603 355.04,584.77 367,560.5C 376.697,534.674 378.197,508.341 371.5,481.5C 372.833,481.5 374.167,481.5 375.5,481.5C 375.5,480.167 375.5,478.833 375.5,477.5 Z"/></g>
<g><path style="opacity:1" fill="#fed0e5" d="M 554.5,426.5 C 554.5,440.833 554.5,455.167 554.5,469.5C 555.833,469.5 557.167,469.5 558.5,469.5C 558.168,479.855 558.501,490.188 559.5,500.5C 560.107,500.376 560.44,500.043 560.5,499.5C 561.833,498.5 563.167,497.5 564.5,496.5C 563.687,515.97 564.854,535.304 568,554.5C 572.029,570.427 581.196,582.26 595.5,590C 606.344,594.535 617.677,596.869 629.5,597C 653.369,598.235 676.702,595.401 699.5,588.5C 700.5,554.84 700.833,521.173 700.5,487.5C 703.601,487.692 706.601,488.358 709.5,489.5C 710.5,468.511 710.833,447.511 710.5,426.5C 711.499,482.664 711.832,538.998 711.5,595.5C 704.451,598.462 697.117,600.962 689.5,603C 676,606.139 662.333,607.973 648.5,608.5C 637.489,608.294 626.489,607.794 615.5,607C 602.385,605.105 590.385,600.439 579.5,593C 562.989,577.471 554.489,558.304 554,535.5C 553.169,498.998 553.336,462.664 554.5,426.5 Z"/></g>
<g><path style="opacity:1" fill="#fecde4" d="M 609.5,426.5 C 610.496,440.99 610.829,455.657 610.5,470.5C 610.17,489.674 610.503,508.674 611.5,527.5C 610.447,537.503 613.113,546.337 619.5,554C 623.072,556.637 627.072,558.303 631.5,559C 638.346,559.821 645.013,559.654 651.5,558.5C 652.5,558.5 653.5,558.5 654.5,558.5C 654.168,514.33 654.501,470.33 655.5,426.5C 655.5,444.167 655.5,461.833 655.5,479.5C 658.807,480.051 662.14,480.384 665.5,480.5C 665.5,509.5 665.5,538.5 665.5,567.5C 650.105,571.604 634.771,571.437 619.5,567C 607.276,559.737 600.776,548.904 600,534.5C 599.5,513.503 599.333,492.503 599.5,471.5C 602.728,472.414 606.061,472.747 609.5,472.5C 609.5,457.167 609.5,441.833 609.5,426.5 Z"/></g>
<g><path style="opacity:1" fill="#f8b3d1" d="M 700.5,487.5 C 700.833,521.173 700.5,554.84 699.5,588.5C 676.702,595.401 653.369,598.235 629.5,597C 617.677,596.869 606.344,594.535 595.5,590C 581.196,582.26 572.029,570.427 568,554.5C 564.854,535.304 563.687,515.97 564.5,496.5C 575.833,484.833 587.167,473.167 598.5,461.5C 599.479,464.625 599.813,467.958 599.5,471.5C 599.333,492.503 599.5,513.503 600,534.5C 600.776,548.904 607.276,559.737 619.5,567C 634.771,571.437 650.105,571.604 665.5,567.5C 665.5,538.5 665.5,509.5 665.5,480.5C 665.5,465.5 665.5,450.5 665.5,435.5C 677.171,434.192 688.838,434.192 700.5,435.5C 700.5,452.833 700.5,470.167 700.5,487.5 Z"/></g>
<g><path style="opacity:1" fill="#f067a4" d="M 651.5,558.5 C 645.013,559.654 638.346,559.821 631.5,559C 627.072,558.303 623.072,556.637 619.5,554C 613.113,546.337 610.447,537.503 611.5,527.5C 611.5,515.5 611.5,503.5 611.5,491.5C 625.5,491.5 639.5,491.5 653.5,491.5C 654.139,514.064 653.473,536.397 651.5,558.5 Z"/></g>
<g><path style="opacity:1" fill="#fef7fa" d="M 598.5,461.5 C 587.167,473.167 575.833,484.833 564.5,496.5C 563.167,497.5 561.833,498.5 560.5,499.5C 559.502,476.673 559.169,453.673 559.5,430.5C 574.824,429.223 590.158,429.223 605.5,430.5C 605.666,438.84 605.5,447.173 605,455.5C 602.937,457.734 600.771,459.734 598.5,461.5 Z"/></g>
<g><path style="opacity:1" fill="#f66daa" d="M 804.5,588.5 C 804.187,591.247 804.52,593.914 805.5,596.5C 810.941,605.733 816.608,614.733 822.5,623.5C 827.888,633.94 833.555,644.273 839.5,654.5C 827.439,655.186 815.439,655.852 803.5,656.5C 784.674,655.503 765.674,655.17 746.5,655.5C 746.351,654.448 746.517,653.448 747,652.5C 756.019,637.779 764.852,622.946 773.5,608C 778.351,607.826 783.018,607.326 787.5,606.5C 792.53,605.687 797.53,604.354 802.5,602.5C 803.117,597.701 803.784,593.034 804.5,588.5 Z"/></g>
<g><path style="opacity:1" fill="#f7d9e8" d="M 80.5,566.5 C 86.832,612.825 99.832,657.159 119.5,699.5C 119.559,701.765 118.726,702.098 117,700.5C 115.97,700.836 115.47,701.503 115.5,702.5C 99.2352,669.815 87.4018,635.481 80,599.5C 78.434,589.838 76.934,580.171 75.5,570.5C 76.29,571.609 76.79,572.942 77,574.5C 77.1858,572.1 77.6858,569.766 78.5,567.5C 79.1835,567.137 79.8501,566.804 80.5,566.5 Z"/></g>
<g><path style="opacity:1" fill="#fedaeb" d="M 131.5,579.5 C 134.281,591.389 137.114,603.389 140,615.5C 148.891,644.698 160.391,672.698 174.5,699.5C 172.958,700.301 171.292,700.634 169.5,700.5C 150.499,665.511 136.832,628.511 128.5,589.5C 128.337,587.143 128.503,584.81 129,582.5C 130.417,581.922 131.25,580.922 131.5,579.5 Z"/></g>
<g><path style="opacity:0.999" fill="#fcd9ea" d="M 933.5,595.5 C 934.949,599.472 937.449,602.806 941,605.5C 941.278,604.584 941.778,603.918 942.5,603.5C 935.255,637.238 924.255,669.572 909.5,700.5C 905.711,700.324 901.711,700.324 897.5,700.5C 913.832,666.868 925.832,631.868 933.5,595.5 Z"/></g>
<g><path style="opacity:1" fill="#f56ca9" d="M 700.5,733.5 C 712.753,754.337 724.753,775.337 736.5,796.5C 695.495,796.833 654.495,796.5 613.5,795.5C 622.765,779.969 631.765,764.302 640.5,748.5C 651.988,728.861 663.488,709.194 675,689.5C 683.274,704.393 691.774,719.06 700.5,733.5 Z"/></g>
<g><path style="opacity:1" fill="#fee0ee" d="M 884.5,646.5 C 869.782,688.954 848.116,727.288 819.5,761.5C 819.565,761.062 819.399,760.728 819,760.5C 817.137,762.949 814.637,763.949 811.5,763.5C 809.833,763.333 808.167,763.167 806.5,763C 807.774,762.023 807.774,761.189 806.5,760.5C 808.58,758.427 810.246,756.093 811.5,753.5C 819.462,744.921 826.462,735.587 832.5,725.5C 842.44,711.293 851.107,696.293 858.5,680.5C 864.019,669.456 869.019,658.122 873.5,646.5C 876.956,646.305 880.622,646.305 884.5,646.5 Z"/></g>
<g><path style="opacity:1" fill="#fee3f0" d="M 174.5,699.5 C 190.433,726.778 209.1,752.112 230.5,775.5C 229.355,776.793 229.689,777.959 231.5,779C 230.207,779.49 228.873,779.657 227.5,779.5C 204.312,755.981 184.979,729.648 169.5,700.5C 171.292,700.634 172.958,700.301 174.5,699.5 Z"/></g>
<g><path style="opacity:1" fill="#f66daa" d="M 579.5,891.5 C 508.408,904.369 439.408,897.702 372.5,871.5C 373.239,871.631 373.906,871.464 374.5,871C 373.549,870.282 373.383,869.449 374,868.5C 405.677,813.136 437.844,758.136 470.5,703.5C 478.276,715.383 485.276,727.717 491.5,740.5C 482.738,756.438 473.738,772.272 464.5,788C 483.176,788.167 501.842,788.667 520.5,789.5C 540.194,823.517 559.861,857.517 579.5,891.5 Z"/></g>
<g><path style="opacity:1" fill="#f56daa" d="M 832.5,725.5 C 826.462,735.587 819.462,744.921 811.5,753.5C 808.5,753.5 805.5,753.5 802.5,753.5C 805.634,745.899 809.301,738.566 813.5,731.5C 817.559,725.734 821.392,719.734 825,713.5C 827.759,717.407 830.259,721.407 832.5,725.5 Z"/></g>
<g><path style="opacity:1" fill="#e85f9c" d="M 813.5,731.5 C 809.301,738.566 805.634,745.899 802.5,753.5C 805.5,753.5 808.5,753.5 811.5,753.5C 810.246,756.093 808.58,758.427 806.5,760.5C 775.787,797.229 739.454,826.896 697.5,849.5C 688.272,832.317 678.605,815.317 668.5,798.5C 691.33,797.833 713.996,797.167 736.5,796.5C 724.753,775.337 712.753,754.337 700.5,733.5C 737.819,731.506 775.485,730.839 813.5,731.5 Z"/></g>
<g><path style="opacity:1" fill="#fc73b0" d="M 285.5,823.5 C 275.765,816.638 266.431,809.305 257.5,801.5C 269.641,781.23 281.807,760.897 294,740.5C 309.5,767.5 325,794.5 340.5,821.5C 322.004,822.167 303.671,822.833 285.5,823.5 Z"/></g>
<g><path style="opacity:1" fill="#fce5f0" d="M 909.5,700.5 C 888.507,744.825 860.841,784.492 826.5,819.5C 822.27,818.78 817.937,818.113 813.5,817.5C 847.794,782.896 875.794,743.896 897.5,700.5C 901.711,700.324 905.711,700.324 909.5,700.5 Z"/></g>
<g><path style="opacity:1" fill="#f9e5ef" d="M 119.5,699.5 C 140.851,743.199 168.518,782.533 202.5,817.5C 200.833,818.167 199.167,818.833 197.5,819.5C 163.128,785.457 135.794,746.457 115.5,702.5C 115.47,701.503 115.97,700.836 117,700.5C 118.726,702.098 119.559,701.765 119.5,699.5 Z"/></g>
<g><path style="opacity:1" fill="#feedf5" d="M 806.5,760.5 C 807.774,761.189 807.774,762.023 806.5,763C 808.167,763.167 809.833,763.333 811.5,763.5C 814.637,763.949 817.137,762.949 819,760.5C 819.399,760.728 819.565,761.062 819.5,761.5C 780.25,810.621 731.917,847.955 674.5,873.5C 667.298,872.768 659.965,872.101 652.5,871.5C 667.93,864.951 682.93,857.618 697.5,849.5C 739.454,826.896 775.787,797.229 806.5,760.5 Z"/></g>
<g><path style="opacity:1" fill="#fbedf4" d="M 813.5,817.5 C 817.937,818.113 822.27,818.78 826.5,819.5C 807.624,839.385 786.957,857.052 764.5,872.5C 758.66,872.755 752.66,872.422 746.5,871.5C 770.44,855.67 792.774,837.67 813.5,817.5 Z"/></g>
<g><path style="opacity:1" fill="#fef2f8" d="M 230.5,775.5 C 230.5,776.167 230.833,776.5 231.5,776.5C 239.533,785.534 248.2,793.867 257.5,801.5C 266.431,809.305 275.765,816.638 285.5,823.5C 312.039,843.647 341.039,859.647 372.5,871.5C 439.408,897.702 508.408,904.369 579.5,891.5C 596.209,888.906 612.543,884.906 628.5,879.5C 636.512,876.831 644.512,874.165 652.5,871.5C 659.965,872.101 667.298,872.768 674.5,873.5C 655.387,882.149 635.72,889.316 615.5,895C 478.975,927.616 356.975,899.449 249.5,810.5C 249.5,810.167 249.5,809.833 249.5,809.5C 252.001,809.174 253.168,807.841 253,805.5C 244.667,797.5 236.333,789.5 228,781.5C 227.536,780.906 227.369,780.239 227.5,779.5C 228.873,779.657 230.207,779.49 231.5,779C 229.689,777.959 229.355,776.793 230.5,775.5 Z"/></g>
<g><path style="opacity:1" fill="#fcf2f7" d="M 202.5,817.5 C 208.996,823.829 215.663,829.995 222.5,836C 224.797,835.888 226.464,834.722 227.5,832.5C 276.919,877.054 333.919,908.388 398.5,926.5C 382.651,929.413 367.484,927.413 353,920.5C 352.235,920.57 351.735,920.903 351.5,921.5C 292.441,898.984 241.108,864.984 197.5,819.5C 199.167,818.833 200.833,818.167 202.5,817.5 Z"/></g>
<g><path style="opacity:0.999" fill="#fbf5f8" d="M 746.5,871.5 C 752.66,872.422 758.66,872.755 764.5,872.5C 667.201,938.725 559.868,963.559 442.5,947C 424.306,943.823 406.306,939.823 388.5,935C 375.866,931.003 363.533,926.503 351.5,921.5C 351.735,920.903 352.235,920.57 353,920.5C 367.484,927.413 382.651,929.413 398.5,926.5C 522.458,957.07 638.458,938.737 746.5,871.5 Z"/></g>
</svg>
